<mxfile host="65bd71144e" pages="3">
    <diagram id="R2lEEEUBdFMjLlhIrx00" name="ER">
        <mxGraphModel dx="1004" dy="338" grid="1" gridSize="10" guides="1" tooltips="1" connect="1" arrows="1" fold="1" page="1" pageScale="1" pageWidth="1169" pageHeight="827" math="0" shadow="0" extFonts="Permanent Marker^https://fonts.googleapis.com/css?family=Permanent+Marker">
            <root>
                <mxCell id="0"/>
                <mxCell id="1" parent="0"/>
                <mxCell id="C-vyLk0tnHw3VtMMgP7b-12" value="" style="edgeStyle=entityRelationEdgeStyle;endArrow=ERzeroToMany;startArrow=ERone;endFill=1;startFill=0;exitX=1;exitY=0.5;exitDx=0;exitDy=0;entryX=0;entryY=0.5;entryDx=0;entryDy=0;" parent="1" source="JtPEdgLGJKblAQhfoVqP-11" target="C-vyLk0tnHw3VtMMgP7b-17" edge="1">
                    <mxGeometry width="100" height="100" relative="1" as="geometry">
                        <mxPoint x="400" y="180" as="sourcePoint"/>
                        <mxPoint x="400" y="410" as="targetPoint"/>
                    </mxGeometry>
                </mxCell>
                <mxCell id="C-vyLk0tnHw3VtMMgP7b-2" value="Orders" style="shape=table;startSize=30;container=1;collapsible=1;childLayout=tableLayout;fixedRows=1;rowLines=0;fontStyle=1;align=center;resizeLast=1;" parent="1" vertex="1">
                    <mxGeometry x="470" y="41" width="270" height="189" as="geometry"/>
                </mxCell>
                <mxCell id="C-vyLk0tnHw3VtMMgP7b-3" value="" style="shape=partialRectangle;collapsible=0;dropTarget=0;pointerEvents=0;fillColor=none;points=[[0,0.5],[1,0.5]];portConstraint=eastwest;top=0;left=0;right=0;bottom=1;" parent="C-vyLk0tnHw3VtMMgP7b-2" vertex="1">
                    <mxGeometry y="30" width="270" height="30" as="geometry"/>
                </mxCell>
                <mxCell id="C-vyLk0tnHw3VtMMgP7b-4" value="PK" style="shape=partialRectangle;overflow=hidden;connectable=0;fillColor=none;top=0;left=0;bottom=0;right=0;fontStyle=1;" parent="C-vyLk0tnHw3VtMMgP7b-3" vertex="1">
                    <mxGeometry width="30" height="30" as="geometry">
                        <mxRectangle width="30" height="30" as="alternateBounds"/>
                    </mxGeometry>
                </mxCell>
                <mxCell id="C-vyLk0tnHw3VtMMgP7b-5" value="ID_Order" style="shape=partialRectangle;overflow=hidden;connectable=0;fillColor=none;top=0;left=0;bottom=0;right=0;align=left;spacingLeft=6;fontStyle=5;" parent="C-vyLk0tnHw3VtMMgP7b-3" vertex="1">
                    <mxGeometry x="30" width="240" height="30" as="geometry">
                        <mxRectangle width="240" height="30" as="alternateBounds"/>
                    </mxGeometry>
                </mxCell>
                <mxCell id="C-vyLk0tnHw3VtMMgP7b-6" value="" style="shape=partialRectangle;collapsible=0;dropTarget=0;pointerEvents=0;fillColor=none;points=[[0,0.5],[1,0.5]];portConstraint=eastwest;top=0;left=0;right=0;bottom=0;" parent="C-vyLk0tnHw3VtMMgP7b-2" vertex="1">
                    <mxGeometry y="60" width="270" height="30" as="geometry"/>
                </mxCell>
                <mxCell id="C-vyLk0tnHw3VtMMgP7b-7" value="FK1" style="shape=partialRectangle;overflow=hidden;connectable=0;fillColor=none;top=0;left=0;bottom=0;right=0;" parent="C-vyLk0tnHw3VtMMgP7b-6" vertex="1">
                    <mxGeometry width="30" height="30" as="geometry">
                        <mxRectangle width="30" height="30" as="alternateBounds"/>
                    </mxGeometry>
                </mxCell>
                <mxCell id="C-vyLk0tnHw3VtMMgP7b-8" value="CustomerID" style="shape=partialRectangle;overflow=hidden;connectable=0;fillColor=none;top=0;left=0;bottom=0;right=0;align=left;spacingLeft=6;" parent="C-vyLk0tnHw3VtMMgP7b-6" vertex="1">
                    <mxGeometry x="30" width="240" height="30" as="geometry">
                        <mxRectangle width="240" height="30" as="alternateBounds"/>
                    </mxGeometry>
                </mxCell>
                <mxCell id="C-vyLk0tnHw3VtMMgP7b-9" value="" style="shape=partialRectangle;collapsible=0;dropTarget=0;pointerEvents=0;fillColor=none;points=[[0,0.5],[1,0.5]];portConstraint=eastwest;top=0;left=0;right=0;bottom=0;" parent="C-vyLk0tnHw3VtMMgP7b-2" vertex="1">
                    <mxGeometry y="90" width="270" height="30" as="geometry"/>
                </mxCell>
                <mxCell id="C-vyLk0tnHw3VtMMgP7b-10" value="" style="shape=partialRectangle;overflow=hidden;connectable=0;fillColor=none;top=0;left=0;bottom=0;right=0;" parent="C-vyLk0tnHw3VtMMgP7b-9" vertex="1">
                    <mxGeometry width="30" height="30" as="geometry">
                        <mxRectangle width="30" height="30" as="alternateBounds"/>
                    </mxGeometry>
                </mxCell>
                <mxCell id="C-vyLk0tnHw3VtMMgP7b-11" value="TotalAmount = sum(Quantity * UnitPrice)" style="shape=partialRectangle;overflow=hidden;connectable=0;fillColor=none;top=0;left=0;bottom=0;right=0;align=left;spacingLeft=6;" parent="C-vyLk0tnHw3VtMMgP7b-9" vertex="1">
                    <mxGeometry x="30" width="240" height="30" as="geometry">
                        <mxRectangle width="240" height="30" as="alternateBounds"/>
                    </mxGeometry>
                </mxCell>
                <mxCell id="JtPEdgLGJKblAQhfoVqP-44" value="" style="shape=partialRectangle;collapsible=0;dropTarget=0;pointerEvents=0;fillColor=none;points=[[0,0.5],[1,0.5]];portConstraint=eastwest;top=0;left=0;right=0;bottom=0;" parent="C-vyLk0tnHw3VtMMgP7b-2" vertex="1">
                    <mxGeometry y="120" width="270" height="30" as="geometry"/>
                </mxCell>
                <mxCell id="JtPEdgLGJKblAQhfoVqP-45" value="" style="shape=partialRectangle;overflow=hidden;connectable=0;fillColor=none;top=0;left=0;bottom=0;right=0;" parent="JtPEdgLGJKblAQhfoVqP-44" vertex="1">
                    <mxGeometry width="30" height="30" as="geometry">
                        <mxRectangle width="30" height="30" as="alternateBounds"/>
                    </mxGeometry>
                </mxCell>
                <mxCell id="JtPEdgLGJKblAQhfoVqP-46" value="OrderDate" style="shape=partialRectangle;overflow=hidden;connectable=0;fillColor=none;top=0;left=0;bottom=0;right=0;align=left;spacingLeft=6;" parent="JtPEdgLGJKblAQhfoVqP-44" vertex="1">
                    <mxGeometry x="30" width="240" height="30" as="geometry">
                        <mxRectangle width="240" height="30" as="alternateBounds"/>
                    </mxGeometry>
                </mxCell>
                <mxCell id="JtPEdgLGJKblAQhfoVqP-48" value="" style="shape=partialRectangle;collapsible=0;dropTarget=0;pointerEvents=0;fillColor=none;points=[[0,0.5],[1,0.5]];portConstraint=eastwest;top=0;left=0;right=0;bottom=0;" parent="C-vyLk0tnHw3VtMMgP7b-2" vertex="1">
                    <mxGeometry y="150" width="270" height="30" as="geometry"/>
                </mxCell>
                <mxCell id="JtPEdgLGJKblAQhfoVqP-49" value="" style="shape=partialRectangle;overflow=hidden;connectable=0;fillColor=none;top=0;left=0;bottom=0;right=0;" parent="JtPEdgLGJKblAQhfoVqP-48" vertex="1">
                    <mxGeometry width="30" height="30" as="geometry">
                        <mxRectangle width="30" height="30" as="alternateBounds"/>
                    </mxGeometry>
                </mxCell>
                <mxCell id="JtPEdgLGJKblAQhfoVqP-50" value="Status" style="shape=partialRectangle;overflow=hidden;connectable=0;fillColor=none;top=0;left=0;bottom=0;right=0;align=left;spacingLeft=6;" parent="JtPEdgLGJKblAQhfoVqP-48" vertex="1">
                    <mxGeometry x="30" width="240" height="30" as="geometry">
                        <mxRectangle width="240" height="30" as="alternateBounds"/>
                    </mxGeometry>
                </mxCell>
                <mxCell id="C-vyLk0tnHw3VtMMgP7b-13" value="Products" style="shape=table;startSize=30;container=1;collapsible=1;childLayout=tableLayout;fixedRows=1;rowLines=0;fontStyle=1;align=center;resizeLast=1;" parent="1" vertex="1">
                    <mxGeometry x="430" y="425" width="250" height="270" as="geometry"/>
                </mxCell>
                <mxCell id="C-vyLk0tnHw3VtMMgP7b-14" value="" style="shape=partialRectangle;collapsible=0;dropTarget=0;pointerEvents=0;fillColor=none;points=[[0,0.5],[1,0.5]];portConstraint=eastwest;top=0;left=0;right=0;bottom=1;" parent="C-vyLk0tnHw3VtMMgP7b-13" vertex="1">
                    <mxGeometry y="30" width="250" height="30" as="geometry"/>
                </mxCell>
                <mxCell id="C-vyLk0tnHw3VtMMgP7b-15" value="PK" style="shape=partialRectangle;overflow=hidden;connectable=0;fillColor=none;top=0;left=0;bottom=0;right=0;fontStyle=1;" parent="C-vyLk0tnHw3VtMMgP7b-14" vertex="1">
                    <mxGeometry width="30" height="30" as="geometry">
                        <mxRectangle width="30" height="30" as="alternateBounds"/>
                    </mxGeometry>
                </mxCell>
                <mxCell id="C-vyLk0tnHw3VtMMgP7b-16" value="ID_Product" style="shape=partialRectangle;overflow=hidden;connectable=0;fillColor=none;top=0;left=0;bottom=0;right=0;align=left;spacingLeft=6;fontStyle=5;" parent="C-vyLk0tnHw3VtMMgP7b-14" vertex="1">
                    <mxGeometry x="30" width="220" height="30" as="geometry">
                        <mxRectangle width="220" height="30" as="alternateBounds"/>
                    </mxGeometry>
                </mxCell>
                <mxCell id="C-vyLk0tnHw3VtMMgP7b-17" value="" style="shape=partialRectangle;collapsible=0;dropTarget=0;pointerEvents=0;fillColor=none;points=[[0,0.5],[1,0.5]];portConstraint=eastwest;top=0;left=0;right=0;bottom=0;" parent="C-vyLk0tnHw3VtMMgP7b-13" vertex="1">
                    <mxGeometry y="60" width="250" height="30" as="geometry"/>
                </mxCell>
                <mxCell id="C-vyLk0tnHw3VtMMgP7b-18" value="FK1" style="shape=partialRectangle;overflow=hidden;connectable=0;fillColor=none;top=0;left=0;bottom=0;right=0;" parent="C-vyLk0tnHw3VtMMgP7b-17" vertex="1">
                    <mxGeometry width="30" height="30" as="geometry">
                        <mxRectangle width="30" height="30" as="alternateBounds"/>
                    </mxGeometry>
                </mxCell>
                <mxCell id="C-vyLk0tnHw3VtMMgP7b-19" value="SupplierID" style="shape=partialRectangle;overflow=hidden;connectable=0;fillColor=none;top=0;left=0;bottom=0;right=0;align=left;spacingLeft=6;" parent="C-vyLk0tnHw3VtMMgP7b-17" vertex="1">
                    <mxGeometry x="30" width="220" height="30" as="geometry">
                        <mxRectangle width="220" height="30" as="alternateBounds"/>
                    </mxGeometry>
                </mxCell>
                <mxCell id="JtPEdgLGJKblAQhfoVqP-1" value="" style="shape=partialRectangle;collapsible=0;dropTarget=0;pointerEvents=0;fillColor=none;points=[[0,0.5],[1,0.5]];portConstraint=eastwest;top=0;left=0;right=0;bottom=0;" parent="C-vyLk0tnHw3VtMMgP7b-13" vertex="1">
                    <mxGeometry y="90" width="250" height="30" as="geometry"/>
                </mxCell>
                <mxCell id="JtPEdgLGJKblAQhfoVqP-2" value="FK2" style="shape=partialRectangle;overflow=hidden;connectable=0;fillColor=none;top=0;left=0;bottom=0;right=0;" parent="JtPEdgLGJKblAQhfoVqP-1" vertex="1">
                    <mxGeometry width="30" height="30" as="geometry">
                        <mxRectangle width="30" height="30" as="alternateBounds"/>
                    </mxGeometry>
                </mxCell>
                <mxCell id="JtPEdgLGJKblAQhfoVqP-3" value="WarehouseID" style="shape=partialRectangle;overflow=hidden;connectable=0;fillColor=none;top=0;left=0;bottom=0;right=0;align=left;spacingLeft=6;" parent="JtPEdgLGJKblAQhfoVqP-1" vertex="1">
                    <mxGeometry x="30" width="220" height="30" as="geometry">
                        <mxRectangle width="220" height="30" as="alternateBounds"/>
                    </mxGeometry>
                </mxCell>
                <mxCell id="JtPEdgLGJKblAQhfoVqP-4" value="" style="shape=partialRectangle;collapsible=0;dropTarget=0;pointerEvents=0;fillColor=none;points=[[0,0.5],[1,0.5]];portConstraint=eastwest;top=0;left=0;right=0;bottom=0;" parent="C-vyLk0tnHw3VtMMgP7b-13" vertex="1">
                    <mxGeometry y="120" width="250" height="30" as="geometry"/>
                </mxCell>
                <mxCell id="JtPEdgLGJKblAQhfoVqP-5" value="" style="shape=partialRectangle;overflow=hidden;connectable=0;fillColor=none;top=0;left=0;bottom=0;right=0;" parent="JtPEdgLGJKblAQhfoVqP-4" vertex="1">
                    <mxGeometry width="30" height="30" as="geometry">
                        <mxRectangle width="30" height="30" as="alternateBounds"/>
                    </mxGeometry>
                </mxCell>
                <mxCell id="JtPEdgLGJKblAQhfoVqP-6" value="ProductName" style="shape=partialRectangle;overflow=hidden;connectable=0;fillColor=none;top=0;left=0;bottom=0;right=0;align=left;spacingLeft=6;" parent="JtPEdgLGJKblAQhfoVqP-4" vertex="1">
                    <mxGeometry x="30" width="220" height="30" as="geometry">
                        <mxRectangle width="220" height="30" as="alternateBounds"/>
                    </mxGeometry>
                </mxCell>
                <mxCell id="KtaahVQvSzDH9mzri9CO-1" value="" style="shape=partialRectangle;collapsible=0;dropTarget=0;pointerEvents=0;fillColor=none;points=[[0,0.5],[1,0.5]];portConstraint=eastwest;top=0;left=0;right=0;bottom=0;" parent="C-vyLk0tnHw3VtMMgP7b-13" vertex="1">
                    <mxGeometry y="150" width="250" height="30" as="geometry"/>
                </mxCell>
                <mxCell id="KtaahVQvSzDH9mzri9CO-2" value="" style="shape=partialRectangle;overflow=hidden;connectable=0;fillColor=none;top=0;left=0;bottom=0;right=0;" parent="KtaahVQvSzDH9mzri9CO-1" vertex="1">
                    <mxGeometry width="30" height="30" as="geometry">
                        <mxRectangle width="30" height="30" as="alternateBounds"/>
                    </mxGeometry>
                </mxCell>
                <mxCell id="KtaahVQvSzDH9mzri9CO-3" value="Producer" style="shape=partialRectangle;overflow=hidden;connectable=0;fillColor=none;top=0;left=0;bottom=0;right=0;align=left;spacingLeft=6;" parent="KtaahVQvSzDH9mzri9CO-1" vertex="1">
                    <mxGeometry x="30" width="220" height="30" as="geometry">
                        <mxRectangle width="220" height="30" as="alternateBounds"/>
                    </mxGeometry>
                </mxCell>
                <mxCell id="KtaahVQvSzDH9mzri9CO-4" value="" style="shape=partialRectangle;collapsible=0;dropTarget=0;pointerEvents=0;fillColor=none;points=[[0,0.5],[1,0.5]];portConstraint=eastwest;top=0;left=0;right=0;bottom=0;" parent="C-vyLk0tnHw3VtMMgP7b-13" vertex="1">
                    <mxGeometry y="180" width="250" height="30" as="geometry"/>
                </mxCell>
                <mxCell id="KtaahVQvSzDH9mzri9CO-5" value="" style="shape=partialRectangle;overflow=hidden;connectable=0;fillColor=none;top=0;left=0;bottom=0;right=0;" parent="KtaahVQvSzDH9mzri9CO-4" vertex="1">
                    <mxGeometry width="30" height="30" as="geometry">
                        <mxRectangle width="30" height="30" as="alternateBounds"/>
                    </mxGeometry>
                </mxCell>
                <mxCell id="KtaahVQvSzDH9mzri9CO-6" value="Cell" style="shape=partialRectangle;overflow=hidden;connectable=0;fillColor=none;top=0;left=0;bottom=0;right=0;align=left;spacingLeft=6;" parent="KtaahVQvSzDH9mzri9CO-4" vertex="1">
                    <mxGeometry x="30" width="220" height="30" as="geometry">
                        <mxRectangle width="220" height="30" as="alternateBounds"/>
                    </mxGeometry>
                </mxCell>
                <mxCell id="JtPEdgLGJKblAQhfoVqP-7" value="" style="shape=partialRectangle;collapsible=0;dropTarget=0;pointerEvents=0;fillColor=none;points=[[0,0.5],[1,0.5]];portConstraint=eastwest;top=0;left=0;right=0;bottom=0;" parent="C-vyLk0tnHw3VtMMgP7b-13" vertex="1">
                    <mxGeometry y="210" width="250" height="30" as="geometry"/>
                </mxCell>
                <mxCell id="JtPEdgLGJKblAQhfoVqP-8" value="" style="shape=partialRectangle;overflow=hidden;connectable=0;fillColor=none;top=0;left=0;bottom=0;right=0;" parent="JtPEdgLGJKblAQhfoVqP-7" vertex="1">
                    <mxGeometry width="30" height="30" as="geometry">
                        <mxRectangle width="30" height="30" as="alternateBounds"/>
                    </mxGeometry>
                </mxCell>
                <mxCell id="JtPEdgLGJKblAQhfoVqP-9" value="UnitPrice" style="shape=partialRectangle;overflow=hidden;connectable=0;fillColor=none;top=0;left=0;bottom=0;right=0;align=left;spacingLeft=6;" parent="JtPEdgLGJKblAQhfoVqP-7" vertex="1">
                    <mxGeometry x="30" width="220" height="30" as="geometry">
                        <mxRectangle width="220" height="30" as="alternateBounds"/>
                    </mxGeometry>
                </mxCell>
                <mxCell id="C-vyLk0tnHw3VtMMgP7b-20" value="" style="shape=partialRectangle;collapsible=0;dropTarget=0;pointerEvents=0;fillColor=none;points=[[0,0.5],[1,0.5]];portConstraint=eastwest;top=0;left=0;right=0;bottom=0;" parent="C-vyLk0tnHw3VtMMgP7b-13" vertex="1">
                    <mxGeometry y="240" width="250" height="30" as="geometry"/>
                </mxCell>
                <mxCell id="C-vyLk0tnHw3VtMMgP7b-21" value="" style="shape=partialRectangle;overflow=hidden;connectable=0;fillColor=none;top=0;left=0;bottom=0;right=0;" parent="C-vyLk0tnHw3VtMMgP7b-20" vertex="1">
                    <mxGeometry width="30" height="30" as="geometry">
                        <mxRectangle width="30" height="30" as="alternateBounds"/>
                    </mxGeometry>
                </mxCell>
                <mxCell id="C-vyLk0tnHw3VtMMgP7b-22" value="QuantityInStock" style="shape=partialRectangle;overflow=hidden;connectable=0;fillColor=none;top=0;left=0;bottom=0;right=0;align=left;spacingLeft=6;" parent="C-vyLk0tnHw3VtMMgP7b-20" vertex="1">
                    <mxGeometry x="30" width="220" height="30" as="geometry">
                        <mxRectangle width="220" height="30" as="alternateBounds"/>
                    </mxGeometry>
                </mxCell>
                <mxCell id="C-vyLk0tnHw3VtMMgP7b-23" value="Customers" style="shape=table;startSize=30;container=1;collapsible=1;childLayout=tableLayout;fixedRows=1;rowLines=0;fontStyle=1;align=center;resizeLast=1;" parent="1" vertex="1">
                    <mxGeometry x="120" y="120" width="250" height="180" as="geometry"/>
                </mxCell>
                <mxCell id="C-vyLk0tnHw3VtMMgP7b-24" value="" style="shape=partialRectangle;collapsible=0;dropTarget=0;pointerEvents=0;fillColor=none;points=[[0,0.5],[1,0.5]];portConstraint=eastwest;top=0;left=0;right=0;bottom=1;" parent="C-vyLk0tnHw3VtMMgP7b-23" vertex="1">
                    <mxGeometry y="30" width="250" height="30" as="geometry"/>
                </mxCell>
                <mxCell id="C-vyLk0tnHw3VtMMgP7b-25" value="PK" style="shape=partialRectangle;overflow=hidden;connectable=0;fillColor=none;top=0;left=0;bottom=0;right=0;fontStyle=1;" parent="C-vyLk0tnHw3VtMMgP7b-24" vertex="1">
                    <mxGeometry width="30" height="30" as="geometry">
                        <mxRectangle width="30" height="30" as="alternateBounds"/>
                    </mxGeometry>
                </mxCell>
                <mxCell id="C-vyLk0tnHw3VtMMgP7b-26" value="ID_Customer" style="shape=partialRectangle;overflow=hidden;connectable=0;fillColor=none;top=0;left=0;bottom=0;right=0;align=left;spacingLeft=6;fontStyle=5;" parent="C-vyLk0tnHw3VtMMgP7b-24" vertex="1">
                    <mxGeometry x="30" width="220" height="30" as="geometry">
                        <mxRectangle width="220" height="30" as="alternateBounds"/>
                    </mxGeometry>
                </mxCell>
                <mxCell id="JtPEdgLGJKblAQhfoVqP-26" value="" style="shape=partialRectangle;collapsible=0;dropTarget=0;pointerEvents=0;fillColor=none;points=[[0,0.5],[1,0.5]];portConstraint=eastwest;top=0;left=0;right=0;bottom=0;" parent="C-vyLk0tnHw3VtMMgP7b-23" vertex="1">
                    <mxGeometry y="60" width="250" height="30" as="geometry"/>
                </mxCell>
                <mxCell id="JtPEdgLGJKblAQhfoVqP-27" value="" style="shape=partialRectangle;overflow=hidden;connectable=0;fillColor=none;top=0;left=0;bottom=0;right=0;" parent="JtPEdgLGJKblAQhfoVqP-26" vertex="1">
                    <mxGeometry width="30" height="30" as="geometry">
                        <mxRectangle width="30" height="30" as="alternateBounds"/>
                    </mxGeometry>
                </mxCell>
                <mxCell id="JtPEdgLGJKblAQhfoVqP-28" value="CustomerName" style="shape=partialRectangle;overflow=hidden;connectable=0;fillColor=none;top=0;left=0;bottom=0;right=0;align=left;spacingLeft=6;" parent="JtPEdgLGJKblAQhfoVqP-26" vertex="1">
                    <mxGeometry x="30" width="220" height="30" as="geometry">
                        <mxRectangle width="220" height="30" as="alternateBounds"/>
                    </mxGeometry>
                </mxCell>
                <mxCell id="JtPEdgLGJKblAQhfoVqP-29" value="" style="shape=partialRectangle;collapsible=0;dropTarget=0;pointerEvents=0;fillColor=none;points=[[0,0.5],[1,0.5]];portConstraint=eastwest;top=0;left=0;right=0;bottom=0;" parent="C-vyLk0tnHw3VtMMgP7b-23" vertex="1">
                    <mxGeometry y="90" width="250" height="30" as="geometry"/>
                </mxCell>
                <mxCell id="JtPEdgLGJKblAQhfoVqP-30" value="" style="shape=partialRectangle;overflow=hidden;connectable=0;fillColor=none;top=0;left=0;bottom=0;right=0;" parent="JtPEdgLGJKblAQhfoVqP-29" vertex="1">
                    <mxGeometry width="30" height="30" as="geometry">
                        <mxRectangle width="30" height="30" as="alternateBounds"/>
                    </mxGeometry>
                </mxCell>
                <mxCell id="JtPEdgLGJKblAQhfoVqP-31" value="Phone" style="shape=partialRectangle;overflow=hidden;connectable=0;fillColor=none;top=0;left=0;bottom=0;right=0;align=left;spacingLeft=6;" parent="JtPEdgLGJKblAQhfoVqP-29" vertex="1">
                    <mxGeometry x="30" width="220" height="30" as="geometry">
                        <mxRectangle width="220" height="30" as="alternateBounds"/>
                    </mxGeometry>
                </mxCell>
                <mxCell id="JtPEdgLGJKblAQhfoVqP-32" value="" style="shape=partialRectangle;collapsible=0;dropTarget=0;pointerEvents=0;fillColor=none;points=[[0,0.5],[1,0.5]];portConstraint=eastwest;top=0;left=0;right=0;bottom=0;" parent="C-vyLk0tnHw3VtMMgP7b-23" vertex="1">
                    <mxGeometry y="120" width="250" height="30" as="geometry"/>
                </mxCell>
                <mxCell id="JtPEdgLGJKblAQhfoVqP-33" value="" style="shape=partialRectangle;overflow=hidden;connectable=0;fillColor=none;top=0;left=0;bottom=0;right=0;" parent="JtPEdgLGJKblAQhfoVqP-32" vertex="1">
                    <mxGeometry width="30" height="30" as="geometry">
                        <mxRectangle width="30" height="30" as="alternateBounds"/>
                    </mxGeometry>
                </mxCell>
                <mxCell id="JtPEdgLGJKblAQhfoVqP-34" value="Email" style="shape=partialRectangle;overflow=hidden;connectable=0;fillColor=none;top=0;left=0;bottom=0;right=0;align=left;spacingLeft=6;" parent="JtPEdgLGJKblAQhfoVqP-32" vertex="1">
                    <mxGeometry x="30" width="220" height="30" as="geometry">
                        <mxRectangle width="220" height="30" as="alternateBounds"/>
                    </mxGeometry>
                </mxCell>
                <mxCell id="C-vyLk0tnHw3VtMMgP7b-27" value="" style="shape=partialRectangle;collapsible=0;dropTarget=0;pointerEvents=0;fillColor=none;points=[[0,0.5],[1,0.5]];portConstraint=eastwest;top=0;left=0;right=0;bottom=0;" parent="C-vyLk0tnHw3VtMMgP7b-23" vertex="1">
                    <mxGeometry y="150" width="250" height="30" as="geometry"/>
                </mxCell>
                <mxCell id="C-vyLk0tnHw3VtMMgP7b-28" value="" style="shape=partialRectangle;overflow=hidden;connectable=0;fillColor=none;top=0;left=0;bottom=0;right=0;" parent="C-vyLk0tnHw3VtMMgP7b-27" vertex="1">
                    <mxGeometry width="30" height="30" as="geometry">
                        <mxRectangle width="30" height="30" as="alternateBounds"/>
                    </mxGeometry>
                </mxCell>
                <mxCell id="C-vyLk0tnHw3VtMMgP7b-29" value="Address" style="shape=partialRectangle;overflow=hidden;connectable=0;fillColor=none;top=0;left=0;bottom=0;right=0;align=left;spacingLeft=6;" parent="C-vyLk0tnHw3VtMMgP7b-27" vertex="1">
                    <mxGeometry x="30" width="220" height="30" as="geometry">
                        <mxRectangle width="220" height="30" as="alternateBounds"/>
                    </mxGeometry>
                </mxCell>
                <mxCell id="JtPEdgLGJKblAQhfoVqP-10" value="Suppliers" style="shape=table;startSize=30;container=1;collapsible=1;childLayout=tableLayout;fixedRows=1;rowLines=0;fontStyle=1;align=center;resizeLast=1;html=1;" parent="1" vertex="1">
                    <mxGeometry x="80" y="440" width="180" height="180" as="geometry"/>
                </mxCell>
                <mxCell id="JtPEdgLGJKblAQhfoVqP-11" value="" style="shape=tableRow;horizontal=0;startSize=0;swimlaneHead=0;swimlaneBody=0;fillColor=none;collapsible=0;dropTarget=0;points=[[0,0.5],[1,0.5]];portConstraint=eastwest;top=0;left=0;right=0;bottom=1;" parent="JtPEdgLGJKblAQhfoVqP-10" vertex="1">
                    <mxGeometry y="30" width="180" height="30" as="geometry"/>
                </mxCell>
                <mxCell id="JtPEdgLGJKblAQhfoVqP-12" value="PK" style="shape=partialRectangle;connectable=0;fillColor=none;top=0;left=0;bottom=0;right=0;fontStyle=1;overflow=hidden;whiteSpace=wrap;html=1;" parent="JtPEdgLGJKblAQhfoVqP-11" vertex="1">
                    <mxGeometry width="30" height="30" as="geometry">
                        <mxRectangle width="30" height="30" as="alternateBounds"/>
                    </mxGeometry>
                </mxCell>
                <mxCell id="JtPEdgLGJKblAQhfoVqP-13" value="ID_Supplier" style="shape=partialRectangle;connectable=0;fillColor=none;top=0;left=0;bottom=0;right=0;align=left;spacingLeft=6;fontStyle=5;overflow=hidden;whiteSpace=wrap;html=1;" parent="JtPEdgLGJKblAQhfoVqP-11" vertex="1">
                    <mxGeometry x="30" width="150" height="30" as="geometry">
                        <mxRectangle width="150" height="30" as="alternateBounds"/>
                    </mxGeometry>
                </mxCell>
                <mxCell id="JtPEdgLGJKblAQhfoVqP-14" value="" style="shape=tableRow;horizontal=0;startSize=0;swimlaneHead=0;swimlaneBody=0;fillColor=none;collapsible=0;dropTarget=0;points=[[0,0.5],[1,0.5]];portConstraint=eastwest;top=0;left=0;right=0;bottom=0;" parent="JtPEdgLGJKblAQhfoVqP-10" vertex="1">
                    <mxGeometry y="60" width="180" height="30" as="geometry"/>
                </mxCell>
                <mxCell id="JtPEdgLGJKblAQhfoVqP-15" value="" style="shape=partialRectangle;connectable=0;fillColor=none;top=0;left=0;bottom=0;right=0;editable=1;overflow=hidden;whiteSpace=wrap;html=1;" parent="JtPEdgLGJKblAQhfoVqP-14" vertex="1">
                    <mxGeometry width="30" height="30" as="geometry">
                        <mxRectangle width="30" height="30" as="alternateBounds"/>
                    </mxGeometry>
                </mxCell>
                <mxCell id="JtPEdgLGJKblAQhfoVqP-16" value="SupplierName" style="shape=partialRectangle;connectable=0;fillColor=none;top=0;left=0;bottom=0;right=0;align=left;spacingLeft=6;overflow=hidden;whiteSpace=wrap;html=1;" parent="JtPEdgLGJKblAQhfoVqP-14" vertex="1">
                    <mxGeometry x="30" width="150" height="30" as="geometry">
                        <mxRectangle width="150" height="30" as="alternateBounds"/>
                    </mxGeometry>
                </mxCell>
                <mxCell id="JtPEdgLGJKblAQhfoVqP-17" value="" style="shape=tableRow;horizontal=0;startSize=0;swimlaneHead=0;swimlaneBody=0;fillColor=none;collapsible=0;dropTarget=0;points=[[0,0.5],[1,0.5]];portConstraint=eastwest;top=0;left=0;right=0;bottom=0;" parent="JtPEdgLGJKblAQhfoVqP-10" vertex="1">
                    <mxGeometry y="90" width="180" height="30" as="geometry"/>
                </mxCell>
                <mxCell id="JtPEdgLGJKblAQhfoVqP-18" value="" style="shape=partialRectangle;connectable=0;fillColor=none;top=0;left=0;bottom=0;right=0;editable=1;overflow=hidden;whiteSpace=wrap;html=1;" parent="JtPEdgLGJKblAQhfoVqP-17" vertex="1">
                    <mxGeometry width="30" height="30" as="geometry">
                        <mxRectangle width="30" height="30" as="alternateBounds"/>
                    </mxGeometry>
                </mxCell>
                <mxCell id="JtPEdgLGJKblAQhfoVqP-19" value="ContactName" style="shape=partialRectangle;connectable=0;fillColor=none;top=0;left=0;bottom=0;right=0;align=left;spacingLeft=6;overflow=hidden;whiteSpace=wrap;html=1;" parent="JtPEdgLGJKblAQhfoVqP-17" vertex="1">
                    <mxGeometry x="30" width="150" height="30" as="geometry">
                        <mxRectangle width="150" height="30" as="alternateBounds"/>
                    </mxGeometry>
                </mxCell>
                <mxCell id="JtPEdgLGJKblAQhfoVqP-23" value="" style="shape=tableRow;horizontal=0;startSize=0;swimlaneHead=0;swimlaneBody=0;fillColor=none;collapsible=0;dropTarget=0;points=[[0,0.5],[1,0.5]];portConstraint=eastwest;top=0;left=0;right=0;bottom=0;" parent="JtPEdgLGJKblAQhfoVqP-10" vertex="1">
                    <mxGeometry y="120" width="180" height="30" as="geometry"/>
                </mxCell>
                <mxCell id="JtPEdgLGJKblAQhfoVqP-24" value="" style="shape=partialRectangle;connectable=0;fillColor=none;top=0;left=0;bottom=0;right=0;editable=1;overflow=hidden;whiteSpace=wrap;html=1;" parent="JtPEdgLGJKblAQhfoVqP-23" vertex="1">
                    <mxGeometry width="30" height="30" as="geometry">
                        <mxRectangle width="30" height="30" as="alternateBounds"/>
                    </mxGeometry>
                </mxCell>
                <mxCell id="JtPEdgLGJKblAQhfoVqP-25" value="Email" style="shape=partialRectangle;connectable=0;fillColor=none;top=0;left=0;bottom=0;right=0;align=left;spacingLeft=6;overflow=hidden;whiteSpace=wrap;html=1;" parent="JtPEdgLGJKblAQhfoVqP-23" vertex="1">
                    <mxGeometry x="30" width="150" height="30" as="geometry">
                        <mxRectangle width="150" height="30" as="alternateBounds"/>
                    </mxGeometry>
                </mxCell>
                <mxCell id="JtPEdgLGJKblAQhfoVqP-20" value="" style="shape=tableRow;horizontal=0;startSize=0;swimlaneHead=0;swimlaneBody=0;fillColor=none;collapsible=0;dropTarget=0;points=[[0,0.5],[1,0.5]];portConstraint=eastwest;top=0;left=0;right=0;bottom=0;" parent="JtPEdgLGJKblAQhfoVqP-10" vertex="1">
                    <mxGeometry y="150" width="180" height="30" as="geometry"/>
                </mxCell>
                <mxCell id="JtPEdgLGJKblAQhfoVqP-21" value="" style="shape=partialRectangle;connectable=0;fillColor=none;top=0;left=0;bottom=0;right=0;editable=1;overflow=hidden;whiteSpace=wrap;html=1;" parent="JtPEdgLGJKblAQhfoVqP-20" vertex="1">
                    <mxGeometry width="30" height="30" as="geometry">
                        <mxRectangle width="30" height="30" as="alternateBounds"/>
                    </mxGeometry>
                </mxCell>
                <mxCell id="JtPEdgLGJKblAQhfoVqP-22" value="Phone" style="shape=partialRectangle;connectable=0;fillColor=none;top=0;left=0;bottom=0;right=0;align=left;spacingLeft=6;overflow=hidden;whiteSpace=wrap;html=1;" parent="JtPEdgLGJKblAQhfoVqP-20" vertex="1">
                    <mxGeometry x="30" width="150" height="30" as="geometry">
                        <mxRectangle width="150" height="30" as="alternateBounds"/>
                    </mxGeometry>
                </mxCell>
                <mxCell id="JtPEdgLGJKblAQhfoVqP-51" value="" style="edgeStyle=entityRelationEdgeStyle;endArrow=ERzeroToMany;startArrow=ERone;endFill=1;startFill=0;exitX=1;exitY=0.5;exitDx=0;exitDy=0;entryX=0;entryY=0.5;entryDx=0;entryDy=0;" parent="1" source="C-vyLk0tnHw3VtMMgP7b-24" target="C-vyLk0tnHw3VtMMgP7b-6" edge="1">
                    <mxGeometry width="100" height="100" relative="1" as="geometry">
                        <mxPoint x="330" y="385" as="sourcePoint"/>
                        <mxPoint x="460" y="365" as="targetPoint"/>
                    </mxGeometry>
                </mxCell>
                <mxCell id="JtPEdgLGJKblAQhfoVqP-52" value="OrderDetails" style="shape=table;startSize=30;container=1;collapsible=1;childLayout=tableLayout;fixedRows=1;rowLines=0;fontStyle=1;align=center;resizeLast=1;html=1;" parent="1" vertex="1">
                    <mxGeometry x="820" y="180" width="180" height="180" as="geometry"/>
                </mxCell>
                <mxCell id="JtPEdgLGJKblAQhfoVqP-53" value="" style="shape=tableRow;horizontal=0;startSize=0;swimlaneHead=0;swimlaneBody=0;fillColor=none;collapsible=0;dropTarget=0;points=[[0,0.5],[1,0.5]];portConstraint=eastwest;top=0;left=0;right=0;bottom=1;" parent="JtPEdgLGJKblAQhfoVqP-52" vertex="1">
                    <mxGeometry y="30" width="180" height="30" as="geometry"/>
                </mxCell>
                <mxCell id="JtPEdgLGJKblAQhfoVqP-54" value="PK" style="shape=partialRectangle;connectable=0;fillColor=none;top=0;left=0;bottom=0;right=0;fontStyle=1;overflow=hidden;whiteSpace=wrap;html=1;" parent="JtPEdgLGJKblAQhfoVqP-53" vertex="1">
                    <mxGeometry width="30" height="30" as="geometry">
                        <mxRectangle width="30" height="30" as="alternateBounds"/>
                    </mxGeometry>
                </mxCell>
                <mxCell id="JtPEdgLGJKblAQhfoVqP-55" value="&lt;span style=&quot;text-align: center; text-wrap: nowrap;&quot;&gt;ID_OrderDetails&lt;/span&gt;" style="shape=partialRectangle;connectable=0;fillColor=none;top=0;left=0;bottom=0;right=0;align=left;spacingLeft=6;fontStyle=5;overflow=hidden;whiteSpace=wrap;html=1;" parent="JtPEdgLGJKblAQhfoVqP-53" vertex="1">
                    <mxGeometry x="30" width="150" height="30" as="geometry">
                        <mxRectangle width="150" height="30" as="alternateBounds"/>
                    </mxGeometry>
                </mxCell>
                <mxCell id="JtPEdgLGJKblAQhfoVqP-56" value="" style="shape=tableRow;horizontal=0;startSize=0;swimlaneHead=0;swimlaneBody=0;fillColor=none;collapsible=0;dropTarget=0;points=[[0,0.5],[1,0.5]];portConstraint=eastwest;top=0;left=0;right=0;bottom=0;" parent="JtPEdgLGJKblAQhfoVqP-52" vertex="1">
                    <mxGeometry y="60" width="180" height="30" as="geometry"/>
                </mxCell>
                <mxCell id="JtPEdgLGJKblAQhfoVqP-57" value="FK1" style="shape=partialRectangle;connectable=0;fillColor=none;top=0;left=0;bottom=0;right=0;editable=1;overflow=hidden;whiteSpace=wrap;html=1;" parent="JtPEdgLGJKblAQhfoVqP-56" vertex="1">
                    <mxGeometry width="30" height="30" as="geometry">
                        <mxRectangle width="30" height="30" as="alternateBounds"/>
                    </mxGeometry>
                </mxCell>
                <mxCell id="JtPEdgLGJKblAQhfoVqP-58" value="OrderId" style="shape=partialRectangle;connectable=0;fillColor=none;top=0;left=0;bottom=0;right=0;align=left;spacingLeft=6;overflow=hidden;whiteSpace=wrap;html=1;" parent="JtPEdgLGJKblAQhfoVqP-56" vertex="1">
                    <mxGeometry x="30" width="150" height="30" as="geometry">
                        <mxRectangle width="150" height="30" as="alternateBounds"/>
                    </mxGeometry>
                </mxCell>
                <mxCell id="JtPEdgLGJKblAQhfoVqP-59" value="" style="shape=tableRow;horizontal=0;startSize=0;swimlaneHead=0;swimlaneBody=0;fillColor=none;collapsible=0;dropTarget=0;points=[[0,0.5],[1,0.5]];portConstraint=eastwest;top=0;left=0;right=0;bottom=0;" parent="JtPEdgLGJKblAQhfoVqP-52" vertex="1">
                    <mxGeometry y="90" width="180" height="30" as="geometry"/>
                </mxCell>
                <mxCell id="JtPEdgLGJKblAQhfoVqP-60" value="FK2" style="shape=partialRectangle;connectable=0;fillColor=none;top=0;left=0;bottom=0;right=0;editable=1;overflow=hidden;whiteSpace=wrap;html=1;" parent="JtPEdgLGJKblAQhfoVqP-59" vertex="1">
                    <mxGeometry width="30" height="30" as="geometry">
                        <mxRectangle width="30" height="30" as="alternateBounds"/>
                    </mxGeometry>
                </mxCell>
                <mxCell id="JtPEdgLGJKblAQhfoVqP-61" value="ProductId" style="shape=partialRectangle;connectable=0;fillColor=none;top=0;left=0;bottom=0;right=0;align=left;spacingLeft=6;overflow=hidden;whiteSpace=wrap;html=1;" parent="JtPEdgLGJKblAQhfoVqP-59" vertex="1">
                    <mxGeometry x="30" width="150" height="30" as="geometry">
                        <mxRectangle width="150" height="30" as="alternateBounds"/>
                    </mxGeometry>
                </mxCell>
                <mxCell id="JtPEdgLGJKblAQhfoVqP-62" value="" style="shape=tableRow;horizontal=0;startSize=0;swimlaneHead=0;swimlaneBody=0;fillColor=none;collapsible=0;dropTarget=0;points=[[0,0.5],[1,0.5]];portConstraint=eastwest;top=0;left=0;right=0;bottom=0;" parent="JtPEdgLGJKblAQhfoVqP-52" vertex="1">
                    <mxGeometry y="120" width="180" height="30" as="geometry"/>
                </mxCell>
                <mxCell id="JtPEdgLGJKblAQhfoVqP-63" value="" style="shape=partialRectangle;connectable=0;fillColor=none;top=0;left=0;bottom=0;right=0;editable=1;overflow=hidden;whiteSpace=wrap;html=1;" parent="JtPEdgLGJKblAQhfoVqP-62" vertex="1">
                    <mxGeometry width="30" height="30" as="geometry">
                        <mxRectangle width="30" height="30" as="alternateBounds"/>
                    </mxGeometry>
                </mxCell>
                <mxCell id="JtPEdgLGJKblAQhfoVqP-64" value="Quantity" style="shape=partialRectangle;connectable=0;fillColor=none;top=0;left=0;bottom=0;right=0;align=left;spacingLeft=6;overflow=hidden;whiteSpace=wrap;html=1;" parent="JtPEdgLGJKblAQhfoVqP-62" vertex="1">
                    <mxGeometry x="30" width="150" height="30" as="geometry">
                        <mxRectangle width="150" height="30" as="alternateBounds"/>
                    </mxGeometry>
                </mxCell>
                <mxCell id="JtPEdgLGJKblAQhfoVqP-65" value="" style="shape=tableRow;horizontal=0;startSize=0;swimlaneHead=0;swimlaneBody=0;fillColor=none;collapsible=0;dropTarget=0;points=[[0,0.5],[1,0.5]];portConstraint=eastwest;top=0;left=0;right=0;bottom=0;" parent="JtPEdgLGJKblAQhfoVqP-52" vertex="1">
                    <mxGeometry y="150" width="180" height="30" as="geometry"/>
                </mxCell>
                <mxCell id="JtPEdgLGJKblAQhfoVqP-66" value="" style="shape=partialRectangle;connectable=0;fillColor=none;top=0;left=0;bottom=0;right=0;editable=1;overflow=hidden;whiteSpace=wrap;html=1;" parent="JtPEdgLGJKblAQhfoVqP-65" vertex="1">
                    <mxGeometry width="30" height="30" as="geometry">
                        <mxRectangle width="30" height="30" as="alternateBounds"/>
                    </mxGeometry>
                </mxCell>
                <mxCell id="JtPEdgLGJKblAQhfoVqP-67" value="UnitPrice" style="shape=partialRectangle;connectable=0;fillColor=none;top=0;left=0;bottom=0;right=0;align=left;spacingLeft=6;overflow=hidden;whiteSpace=wrap;html=1;" parent="JtPEdgLGJKblAQhfoVqP-65" vertex="1">
                    <mxGeometry x="30" width="150" height="30" as="geometry">
                        <mxRectangle width="150" height="30" as="alternateBounds"/>
                    </mxGeometry>
                </mxCell>
                <mxCell id="JtPEdgLGJKblAQhfoVqP-68" value="" style="edgeStyle=entityRelationEdgeStyle;endArrow=ERzeroToMany;startArrow=ERone;endFill=1;startFill=0;exitX=1;exitY=0.5;exitDx=0;exitDy=0;entryX=0;entryY=0.5;entryDx=0;entryDy=0;" parent="1" source="C-vyLk0tnHw3VtMMgP7b-3" target="JtPEdgLGJKblAQhfoVqP-56" edge="1">
                    <mxGeometry width="100" height="100" relative="1" as="geometry">
                        <mxPoint x="920" y="260" as="sourcePoint"/>
                        <mxPoint x="820" y="90" as="targetPoint"/>
                        <Array as="points">
                            <mxPoint x="930" y="430"/>
                            <mxPoint x="810" y="315"/>
                            <mxPoint x="1020" y="460"/>
                        </Array>
                    </mxGeometry>
                </mxCell>
                <mxCell id="JtPEdgLGJKblAQhfoVqP-69" value="" style="edgeStyle=entityRelationEdgeStyle;endArrow=ERzeroToMany;startArrow=ERone;endFill=1;startFill=0;exitX=1;exitY=0.5;exitDx=0;exitDy=0;entryX=0;entryY=0.5;entryDx=0;entryDy=0;" parent="1" source="C-vyLk0tnHw3VtMMgP7b-14" target="JtPEdgLGJKblAQhfoVqP-59" edge="1">
                    <mxGeometry width="100" height="100" relative="1" as="geometry">
                        <mxPoint x="730" y="95" as="sourcePoint"/>
                        <mxPoint x="830" y="265" as="targetPoint"/>
                        <Array as="points">
                            <mxPoint x="940" y="440"/>
                            <mxPoint x="820" y="325"/>
                            <mxPoint x="1030" y="470"/>
                        </Array>
                    </mxGeometry>
                </mxCell>
                <mxCell id="JtPEdgLGJKblAQhfoVqP-70" value="Warehouses" style="shape=table;startSize=30;container=1;collapsible=1;childLayout=tableLayout;fixedRows=1;rowLines=0;fontStyle=1;align=center;resizeLast=1;html=1;" parent="1" vertex="1">
                    <mxGeometry x="810" y="440" width="180" height="180" as="geometry"/>
                </mxCell>
                <mxCell id="JtPEdgLGJKblAQhfoVqP-71" value="" style="shape=tableRow;horizontal=0;startSize=0;swimlaneHead=0;swimlaneBody=0;fillColor=none;collapsible=0;dropTarget=0;points=[[0,0.5],[1,0.5]];portConstraint=eastwest;top=0;left=0;right=0;bottom=1;" parent="JtPEdgLGJKblAQhfoVqP-70" vertex="1">
                    <mxGeometry y="30" width="180" height="30" as="geometry"/>
                </mxCell>
                <mxCell id="JtPEdgLGJKblAQhfoVqP-72" value="PK" style="shape=partialRectangle;connectable=0;fillColor=none;top=0;left=0;bottom=0;right=0;fontStyle=1;overflow=hidden;whiteSpace=wrap;html=1;" parent="JtPEdgLGJKblAQhfoVqP-71" vertex="1">
                    <mxGeometry width="30" height="30" as="geometry">
                        <mxRectangle width="30" height="30" as="alternateBounds"/>
                    </mxGeometry>
                </mxCell>
                <mxCell id="JtPEdgLGJKblAQhfoVqP-73" value="&lt;span style=&quot;text-align: center; text-wrap: nowrap;&quot;&gt;ID_Warehouse&lt;/span&gt;" style="shape=partialRectangle;connectable=0;fillColor=none;top=0;left=0;bottom=0;right=0;align=left;spacingLeft=6;fontStyle=5;overflow=hidden;whiteSpace=wrap;html=1;" parent="JtPEdgLGJKblAQhfoVqP-71" vertex="1">
                    <mxGeometry x="30" width="150" height="30" as="geometry">
                        <mxRectangle width="150" height="30" as="alternateBounds"/>
                    </mxGeometry>
                </mxCell>
                <mxCell id="JtPEdgLGJKblAQhfoVqP-74" value="" style="shape=tableRow;horizontal=0;startSize=0;swimlaneHead=0;swimlaneBody=0;fillColor=none;collapsible=0;dropTarget=0;points=[[0,0.5],[1,0.5]];portConstraint=eastwest;top=0;left=0;right=0;bottom=0;" parent="JtPEdgLGJKblAQhfoVqP-70" vertex="1">
                    <mxGeometry y="60" width="180" height="30" as="geometry"/>
                </mxCell>
                <mxCell id="JtPEdgLGJKblAQhfoVqP-75" value="" style="shape=partialRectangle;connectable=0;fillColor=none;top=0;left=0;bottom=0;right=0;editable=1;overflow=hidden;whiteSpace=wrap;html=1;" parent="JtPEdgLGJKblAQhfoVqP-74" vertex="1">
                    <mxGeometry width="30" height="30" as="geometry">
                        <mxRectangle width="30" height="30" as="alternateBounds"/>
                    </mxGeometry>
                </mxCell>
                <mxCell id="JtPEdgLGJKblAQhfoVqP-76" value="WarehouseName" style="shape=partialRectangle;connectable=0;fillColor=none;top=0;left=0;bottom=0;right=0;align=left;spacingLeft=6;overflow=hidden;whiteSpace=wrap;html=1;" parent="JtPEdgLGJKblAQhfoVqP-74" vertex="1">
                    <mxGeometry x="30" width="150" height="30" as="geometry">
                        <mxRectangle width="150" height="30" as="alternateBounds"/>
                    </mxGeometry>
                </mxCell>
                <mxCell id="JtPEdgLGJKblAQhfoVqP-77" value="" style="shape=tableRow;horizontal=0;startSize=0;swimlaneHead=0;swimlaneBody=0;fillColor=none;collapsible=0;dropTarget=0;points=[[0,0.5],[1,0.5]];portConstraint=eastwest;top=0;left=0;right=0;bottom=0;" parent="JtPEdgLGJKblAQhfoVqP-70" vertex="1">
                    <mxGeometry y="90" width="180" height="30" as="geometry"/>
                </mxCell>
                <mxCell id="JtPEdgLGJKblAQhfoVqP-78" value="" style="shape=partialRectangle;connectable=0;fillColor=none;top=0;left=0;bottom=0;right=0;editable=1;overflow=hidden;whiteSpace=wrap;html=1;" parent="JtPEdgLGJKblAQhfoVqP-77" vertex="1">
                    <mxGeometry width="30" height="30" as="geometry">
                        <mxRectangle width="30" height="30" as="alternateBounds"/>
                    </mxGeometry>
                </mxCell>
                <mxCell id="JtPEdgLGJKblAQhfoVqP-79" value="Location" style="shape=partialRectangle;connectable=0;fillColor=none;top=0;left=0;bottom=0;right=0;align=left;spacingLeft=6;overflow=hidden;whiteSpace=wrap;html=1;" parent="JtPEdgLGJKblAQhfoVqP-77" vertex="1">
                    <mxGeometry x="30" width="150" height="30" as="geometry">
                        <mxRectangle width="150" height="30" as="alternateBounds"/>
                    </mxGeometry>
                </mxCell>
                <mxCell id="JtPEdgLGJKblAQhfoVqP-80" value="" style="shape=tableRow;horizontal=0;startSize=0;swimlaneHead=0;swimlaneBody=0;fillColor=none;collapsible=0;dropTarget=0;points=[[0,0.5],[1,0.5]];portConstraint=eastwest;top=0;left=0;right=0;bottom=0;" parent="JtPEdgLGJKblAQhfoVqP-70" vertex="1">
                    <mxGeometry y="120" width="180" height="30" as="geometry"/>
                </mxCell>
                <mxCell id="JtPEdgLGJKblAQhfoVqP-81" value="" style="shape=partialRectangle;connectable=0;fillColor=none;top=0;left=0;bottom=0;right=0;editable=1;overflow=hidden;whiteSpace=wrap;html=1;" parent="JtPEdgLGJKblAQhfoVqP-80" vertex="1">
                    <mxGeometry width="30" height="30" as="geometry">
                        <mxRectangle width="30" height="30" as="alternateBounds"/>
                    </mxGeometry>
                </mxCell>
                <mxCell id="JtPEdgLGJKblAQhfoVqP-82" value="ManagerName" style="shape=partialRectangle;connectable=0;fillColor=none;top=0;left=0;bottom=0;right=0;align=left;spacingLeft=6;overflow=hidden;whiteSpace=wrap;html=1;" parent="JtPEdgLGJKblAQhfoVqP-80" vertex="1">
                    <mxGeometry x="30" width="150" height="30" as="geometry">
                        <mxRectangle width="150" height="30" as="alternateBounds"/>
                    </mxGeometry>
                </mxCell>
                <mxCell id="JtPEdgLGJKblAQhfoVqP-83" value="" style="shape=tableRow;horizontal=0;startSize=0;swimlaneHead=0;swimlaneBody=0;fillColor=none;collapsible=0;dropTarget=0;points=[[0,0.5],[1,0.5]];portConstraint=eastwest;top=0;left=0;right=0;bottom=0;" parent="JtPEdgLGJKblAQhfoVqP-70" vertex="1">
                    <mxGeometry y="150" width="180" height="30" as="geometry"/>
                </mxCell>
                <mxCell id="JtPEdgLGJKblAQhfoVqP-84" value="" style="shape=partialRectangle;connectable=0;fillColor=none;top=0;left=0;bottom=0;right=0;editable=1;overflow=hidden;whiteSpace=wrap;html=1;" parent="JtPEdgLGJKblAQhfoVqP-83" vertex="1">
                    <mxGeometry width="30" height="30" as="geometry">
                        <mxRectangle width="30" height="30" as="alternateBounds"/>
                    </mxGeometry>
                </mxCell>
                <mxCell id="JtPEdgLGJKblAQhfoVqP-85" value="Capacity" style="shape=partialRectangle;connectable=0;fillColor=none;top=0;left=0;bottom=0;right=0;align=left;spacingLeft=6;overflow=hidden;whiteSpace=wrap;html=1;" parent="JtPEdgLGJKblAQhfoVqP-83" vertex="1">
                    <mxGeometry x="30" width="150" height="30" as="geometry">
                        <mxRectangle width="150" height="30" as="alternateBounds"/>
                    </mxGeometry>
                </mxCell>
                <mxCell id="JtPEdgLGJKblAQhfoVqP-86" value="" style="edgeStyle=entityRelationEdgeStyle;endArrow=ERzeroToMany;startArrow=ERone;endFill=1;startFill=0;exitX=0;exitY=0.5;exitDx=0;exitDy=0;entryX=1;entryY=0.5;entryDx=0;entryDy=0;" parent="1" source="JtPEdgLGJKblAQhfoVqP-71" target="JtPEdgLGJKblAQhfoVqP-1" edge="1">
                    <mxGeometry width="100" height="100" relative="1" as="geometry">
                        <mxPoint x="690" y="480" as="sourcePoint"/>
                        <mxPoint x="830" y="295" as="targetPoint"/>
                        <Array as="points">
                            <mxPoint x="950" y="450"/>
                            <mxPoint x="830" y="335"/>
                            <mxPoint x="1040" y="480"/>
                        </Array>
                    </mxGeometry>
                </mxCell>
            </root>
        </mxGraphModel>
    </diagram>
    <diagram id="M207e58IH8JIy3ARO8dt" name="ERD">
        <mxGraphModel dx="1004" dy="338" grid="1" gridSize="10" guides="1" tooltips="1" connect="1" arrows="1" fold="1" page="1" pageScale="1" pageWidth="1654" pageHeight="1169" math="0" shadow="0">
            <root>
                <mxCell id="0"/>
                <mxCell id="1" parent="0"/>
                <mxCell id="AXvg-c1SaaJu77Ni_j98-1" value="&lt;b&gt;Customers&lt;/b&gt;" style="rounded=0;whiteSpace=wrap;html=1;" parent="1" vertex="1">
                    <mxGeometry x="250" y="160" width="90" height="30" as="geometry"/>
                </mxCell>
                <mxCell id="AXvg-c1SaaJu77Ni_j98-2" value="&lt;span style=&quot;font-weight: 700; text-align: left; white-space: nowrap; text-decoration-line: underline;&quot;&gt;ID_Customer&lt;/span&gt;" style="ellipse;whiteSpace=wrap;html=1;" parent="1" vertex="1">
                    <mxGeometry x="220" y="210" width="90" height="30" as="geometry"/>
                </mxCell>
                <mxCell id="XcMbS0dGeyIthJl0T59d-2" value="&lt;span style=&quot;text-align: left; white-space: nowrap;&quot;&gt;CustomerName&lt;/span&gt;" style="ellipse;whiteSpace=wrap;html=1;" parent="1" vertex="1">
                    <mxGeometry x="220" y="250" width="90" height="30" as="geometry"/>
                </mxCell>
                <mxCell id="82AuCcse3eRxmyOqQl2y-1" value="&lt;span style=&quot;text-align: left; white-space: nowrap;&quot;&gt;Phone&lt;/span&gt;" style="ellipse;whiteSpace=wrap;html=1;" parent="1" vertex="1">
                    <mxGeometry x="220" y="290" width="90" height="30" as="geometry"/>
                </mxCell>
                <mxCell id="82AuCcse3eRxmyOqQl2y-2" value="&lt;span style=&quot;text-align: left; white-space: nowrap;&quot;&gt;Email&lt;/span&gt;" style="ellipse;whiteSpace=wrap;html=1;" parent="1" vertex="1">
                    <mxGeometry x="220" y="330" width="90" height="30" as="geometry"/>
                </mxCell>
                <mxCell id="82AuCcse3eRxmyOqQl2y-3" value="&lt;span style=&quot;text-align: left; white-space: nowrap;&quot;&gt;Address&lt;/span&gt;" style="ellipse;whiteSpace=wrap;html=1;" parent="1" vertex="1">
                    <mxGeometry x="220" y="370" width="90" height="30" as="geometry"/>
                </mxCell>
                <mxCell id="4vpv5J-NocmsHW9yxvte-1" value="&lt;span style=&quot;font-weight: 700; white-space: nowrap;&quot;&gt;Orders&lt;/span&gt;" style="rounded=0;whiteSpace=wrap;html=1;" parent="1" vertex="1">
                    <mxGeometry x="530" y="160" width="90" height="30" as="geometry"/>
                </mxCell>
                <mxCell id="fACF-kPH0CvDJGMa1xHm-2" value="&lt;span style=&quot;font-weight: 700; text-align: left; white-space: nowrap; text-decoration-line: underline;&quot;&gt;ID_Order&lt;/span&gt;" style="ellipse;whiteSpace=wrap;html=1;" parent="1" vertex="1">
                    <mxGeometry x="500" y="210" width="90" height="30" as="geometry"/>
                </mxCell>
                <mxCell id="fACF-kPH0CvDJGMa1xHm-3" value="&lt;span style=&quot;text-align: left; white-space: nowrap;&quot;&gt;CustomerID&lt;/span&gt;" style="ellipse;whiteSpace=wrap;html=1;" parent="1" vertex="1">
                    <mxGeometry x="500" y="250" width="90" height="30" as="geometry"/>
                </mxCell>
                <mxCell id="fACF-kPH0CvDJGMa1xHm-4" value="&lt;span style=&quot;text-align: left; white-space: nowrap;&quot;&gt;TotalAmount =&lt;/span&gt;&lt;div&gt;&lt;span style=&quot;text-align: left; white-space: nowrap;&quot;&gt;&amp;nbsp;sum&lt;/span&gt;&lt;/div&gt;&lt;div&gt;&lt;span style=&quot;text-align: left; white-space: nowrap;&quot;&gt;(Quantity * UnitPrice)&lt;/span&gt;&lt;br&gt;&lt;/div&gt;" style="ellipse;whiteSpace=wrap;html=1;" parent="1" vertex="1">
                    <mxGeometry x="480" y="290" width="110" height="50" as="geometry"/>
                </mxCell>
                <mxCell id="fACF-kPH0CvDJGMa1xHm-5" value="&lt;span style=&quot;text-align: left; white-space: nowrap;&quot;&gt;OrderDate&lt;/span&gt;" style="ellipse;whiteSpace=wrap;html=1;" parent="1" vertex="1">
                    <mxGeometry x="500" y="350" width="90" height="30" as="geometry"/>
                </mxCell>
                <mxCell id="fACF-kPH0CvDJGMa1xHm-6" value="&lt;span style=&quot;text-align: left; white-space: nowrap;&quot;&gt;Status&lt;/span&gt;" style="ellipse;whiteSpace=wrap;html=1;" parent="1" vertex="1">
                    <mxGeometry x="500" y="400" width="90" height="30" as="geometry"/>
                </mxCell>
                <mxCell id="-l5p0vUfZkTbAmYqYdtc-1" value="Формирует заказ" style="rhombus;whiteSpace=wrap;html=1;" parent="1" vertex="1">
                    <mxGeometry x="390" y="135" width="80" height="80" as="geometry"/>
                </mxCell>
                <mxCell id="gH9XeUkgVS_6qsFWSwpR-1" value="&lt;span style=&quot;font-weight: 700; white-space: nowrap;&quot;&gt;OrderDetails&lt;/span&gt;" style="rounded=0;whiteSpace=wrap;html=1;" parent="1" vertex="1">
                    <mxGeometry x="780" y="160" width="90" height="30" as="geometry"/>
                </mxCell>
                <mxCell id="gH9XeUkgVS_6qsFWSwpR-2" value="&lt;span style=&quot;font-weight: 700; text-decoration-line: underline;&quot;&gt;ID_OrderDetails&lt;/span&gt;" style="ellipse;whiteSpace=wrap;html=1;" parent="1" vertex="1">
                    <mxGeometry x="750" y="210" width="90" height="30" as="geometry"/>
                </mxCell>
                <mxCell id="gH9XeUkgVS_6qsFWSwpR-3" value="&lt;span style=&quot;text-align: left;&quot;&gt;OrderId&lt;/span&gt;" style="ellipse;whiteSpace=wrap;html=1;" parent="1" vertex="1">
                    <mxGeometry x="750" y="250" width="90" height="30" as="geometry"/>
                </mxCell>
                <mxCell id="gH9XeUkgVS_6qsFWSwpR-4" value="&lt;span style=&quot;text-align: left;&quot;&gt;ProductId&lt;/span&gt;" style="ellipse;whiteSpace=wrap;html=1;" parent="1" vertex="1">
                    <mxGeometry x="750" y="290" width="90" height="30" as="geometry"/>
                </mxCell>
                <mxCell id="gH9XeUkgVS_6qsFWSwpR-5" value="&lt;span style=&quot;text-align: left;&quot;&gt;Quantity&lt;/span&gt;" style="ellipse;whiteSpace=wrap;html=1;" parent="1" vertex="1">
                    <mxGeometry x="750" y="330" width="90" height="30" as="geometry"/>
                </mxCell>
                <mxCell id="gH9XeUkgVS_6qsFWSwpR-6" value="&lt;span style=&quot;text-align: left;&quot;&gt;UnitPrice&lt;/span&gt;" style="ellipse;whiteSpace=wrap;html=1;" parent="1" vertex="1">
                    <mxGeometry x="750" y="370" width="90" height="30" as="geometry"/>
                </mxCell>
                <mxCell id="fS6la11TyCVBO8gZRqQS-1" value="Содержит" style="rhombus;whiteSpace=wrap;html=1;" parent="1" vertex="1">
                    <mxGeometry x="660" y="135" width="80" height="80" as="geometry"/>
                </mxCell>
                <mxCell id="XhsQYgnv3VugerLCkWvd-11" value="&lt;span style=&quot;font-weight: 700; white-space: nowrap;&quot;&gt;Products&lt;/span&gt;" style="rounded=0;whiteSpace=wrap;html=1;" parent="1" vertex="1">
                    <mxGeometry x="520" y="570" width="90" height="30" as="geometry"/>
                </mxCell>
                <mxCell id="XhsQYgnv3VugerLCkWvd-12" value="&lt;span style=&quot;font-weight: 700; text-align: left; white-space: nowrap; text-decoration-line: underline;&quot;&gt;ID_Product&lt;/span&gt;" style="ellipse;whiteSpace=wrap;html=1;" parent="1" vertex="1">
                    <mxGeometry x="490" y="620" width="90" height="30" as="geometry"/>
                </mxCell>
                <mxCell id="XhsQYgnv3VugerLCkWvd-13" value="&lt;span style=&quot;text-align: left; white-space: nowrap;&quot;&gt;SupplierID&lt;/span&gt;" style="ellipse;whiteSpace=wrap;html=1;" parent="1" vertex="1">
                    <mxGeometry x="490" y="660" width="90" height="30" as="geometry"/>
                </mxCell>
                <mxCell id="XhsQYgnv3VugerLCkWvd-14" value="&lt;span style=&quot;text-align: left; white-space: nowrap;&quot;&gt;WarehouseID&lt;/span&gt;" style="ellipse;whiteSpace=wrap;html=1;" parent="1" vertex="1">
                    <mxGeometry x="490" y="700" width="90" height="30" as="geometry"/>
                </mxCell>
                <mxCell id="XhsQYgnv3VugerLCkWvd-15" value="&lt;span style=&quot;text-align: left; white-space: nowrap;&quot;&gt;ProductName&lt;/span&gt;" style="ellipse;whiteSpace=wrap;html=1;" parent="1" vertex="1">
                    <mxGeometry x="490" y="740" width="90" height="30" as="geometry"/>
                </mxCell>
                <mxCell id="XhsQYgnv3VugerLCkWvd-16" value="&lt;span style=&quot;text-align: left; white-space: nowrap;&quot;&gt;UnitPrice&lt;/span&gt;" style="ellipse;whiteSpace=wrap;html=1;" parent="1" vertex="1">
                    <mxGeometry x="490" y="855" width="90" height="30" as="geometry"/>
                </mxCell>
                <mxCell id="mS_5NfRD-XkY-NXFzjsa-1" value="&lt;span style=&quot;text-align: left; white-space: nowrap;&quot;&gt;QuantityInStock&lt;/span&gt;" style="ellipse;whiteSpace=wrap;html=1;" parent="1" vertex="1">
                    <mxGeometry x="490" y="895" width="90" height="30" as="geometry"/>
                </mxCell>
                <mxCell id="xyA-tiP0No1S2VFNsUAR-1" value="Добавляется в заказ" style="rhombus;whiteSpace=wrap;html=1;" parent="1" vertex="1">
                    <mxGeometry x="900" y="367.5" width="100" height="95" as="geometry"/>
                </mxCell>
                <mxCell id="M9Vu9bnS06gmllW8D-EQ-1" value="&lt;span style=&quot;font-weight: 700; white-space: nowrap;&quot;&gt;Suppliers&lt;/span&gt;" style="rounded=0;whiteSpace=wrap;html=1;" parent="1" vertex="1">
                    <mxGeometry x="250" y="570" width="90" height="30" as="geometry"/>
                </mxCell>
                <mxCell id="M9Vu9bnS06gmllW8D-EQ-2" value="&lt;span style=&quot;font-weight: 700; text-align: left; text-decoration-line: underline;&quot;&gt;ID_Supplier&lt;/span&gt;" style="ellipse;whiteSpace=wrap;html=1;" parent="1" vertex="1">
                    <mxGeometry x="220" y="620" width="90" height="30" as="geometry"/>
                </mxCell>
                <mxCell id="M9Vu9bnS06gmllW8D-EQ-3" value="&lt;span style=&quot;text-align: left;&quot;&gt;SupplierName&lt;/span&gt;" style="ellipse;whiteSpace=wrap;html=1;" parent="1" vertex="1">
                    <mxGeometry x="220" y="660" width="90" height="30" as="geometry"/>
                </mxCell>
                <mxCell id="M9Vu9bnS06gmllW8D-EQ-4" value="&lt;span style=&quot;text-align: left;&quot;&gt;ContactName&lt;/span&gt;" style="ellipse;whiteSpace=wrap;html=1;" parent="1" vertex="1">
                    <mxGeometry x="220" y="700" width="90" height="30" as="geometry"/>
                </mxCell>
                <mxCell id="M9Vu9bnS06gmllW8D-EQ-5" value="&lt;span style=&quot;text-align: left;&quot;&gt;Email&lt;/span&gt;" style="ellipse;whiteSpace=wrap;html=1;" parent="1" vertex="1">
                    <mxGeometry x="220" y="740" width="90" height="30" as="geometry"/>
                </mxCell>
                <mxCell id="M9Vu9bnS06gmllW8D-EQ-6" value="&lt;span style=&quot;text-align: left;&quot;&gt;Phone&lt;/span&gt;" style="ellipse;whiteSpace=wrap;html=1;" parent="1" vertex="1">
                    <mxGeometry x="220" y="780" width="90" height="30" as="geometry"/>
                </mxCell>
                <mxCell id="E4s4wqeGl11uZwnDE-qk-1" value="Поставляет на склад" style="rhombus;whiteSpace=wrap;html=1;" parent="1" vertex="1">
                    <mxGeometry x="390" y="545" width="80" height="80" as="geometry"/>
                </mxCell>
                <mxCell id="43Qi_iZO2jsJakE7LHLj-1" value="&lt;span style=&quot;font-weight: 700; white-space: nowrap;&quot;&gt;Warehouses&lt;/span&gt;" style="rounded=0;whiteSpace=wrap;html=1;" parent="1" vertex="1">
                    <mxGeometry x="770" y="570" width="90" height="30" as="geometry"/>
                </mxCell>
                <mxCell id="43Qi_iZO2jsJakE7LHLj-2" value="&lt;span style=&quot;font-weight: 700; text-decoration-line: underline;&quot;&gt;ID_Warehouse&lt;/span&gt;" style="ellipse;whiteSpace=wrap;html=1;" parent="1" vertex="1">
                    <mxGeometry x="740" y="620" width="90" height="30" as="geometry"/>
                </mxCell>
                <mxCell id="43Qi_iZO2jsJakE7LHLj-3" value="&lt;span style=&quot;text-align: left;&quot;&gt;WarehouseName&lt;/span&gt;" style="ellipse;whiteSpace=wrap;html=1;" parent="1" vertex="1">
                    <mxGeometry x="740" y="660" width="90" height="30" as="geometry"/>
                </mxCell>
                <mxCell id="43Qi_iZO2jsJakE7LHLj-4" value="&lt;span style=&quot;text-align: left;&quot;&gt;Location&lt;/span&gt;" style="ellipse;whiteSpace=wrap;html=1;" parent="1" vertex="1">
                    <mxGeometry x="740" y="700" width="90" height="30" as="geometry"/>
                </mxCell>
                <mxCell id="43Qi_iZO2jsJakE7LHLj-5" value="&lt;span style=&quot;text-align: left;&quot;&gt;ManagerName&lt;/span&gt;" style="ellipse;whiteSpace=wrap;html=1;" parent="1" vertex="1">
                    <mxGeometry x="740" y="740" width="90" height="30" as="geometry"/>
                </mxCell>
                <mxCell id="43Qi_iZO2jsJakE7LHLj-6" value="&lt;span style=&quot;text-align: left;&quot;&gt;Capacity&lt;/span&gt;" style="ellipse;whiteSpace=wrap;html=1;" parent="1" vertex="1">
                    <mxGeometry x="741" y="781" width="90" height="30" as="geometry"/>
                </mxCell>
                <mxCell id="Pofh2OFVeD7XOm_jeUnO-1" value="Хранится на складе" style="rhombus;whiteSpace=wrap;html=1;" parent="1" vertex="1">
                    <mxGeometry x="650" y="545" width="80" height="80" as="geometry"/>
                </mxCell>
                <mxCell id="Pofh2OFVeD7XOm_jeUnO-2" value="" style="endArrow=none;html=1;rounded=0;exitX=1;exitY=0.5;exitDx=0;exitDy=0;entryX=0;entryY=0.5;entryDx=0;entryDy=0;" parent="1" source="AXvg-c1SaaJu77Ni_j98-1" target="-l5p0vUfZkTbAmYqYdtc-1" edge="1">
                    <mxGeometry width="50" height="50" relative="1" as="geometry">
                        <mxPoint x="350" y="150" as="sourcePoint"/>
                        <mxPoint x="400" y="100" as="targetPoint"/>
                    </mxGeometry>
                </mxCell>
                <mxCell id="Pofh2OFVeD7XOm_jeUnO-3" value="" style="endArrow=none;html=1;rounded=0;exitX=1;exitY=0.5;exitDx=0;exitDy=0;entryX=0;entryY=0.5;entryDx=0;entryDy=0;" parent="1" source="-l5p0vUfZkTbAmYqYdtc-1" target="4vpv5J-NocmsHW9yxvte-1" edge="1">
                    <mxGeometry width="50" height="50" relative="1" as="geometry">
                        <mxPoint x="350" y="185" as="sourcePoint"/>
                        <mxPoint x="500" y="140" as="targetPoint"/>
                    </mxGeometry>
                </mxCell>
                <mxCell id="Pofh2OFVeD7XOm_jeUnO-4" value="" style="endArrow=none;html=1;rounded=0;exitX=1;exitY=0.5;exitDx=0;exitDy=0;entryX=0;entryY=0.5;entryDx=0;entryDy=0;" parent="1" source="4vpv5J-NocmsHW9yxvte-1" target="fS6la11TyCVBO8gZRqQS-1" edge="1">
                    <mxGeometry width="50" height="50" relative="1" as="geometry">
                        <mxPoint x="480" y="185" as="sourcePoint"/>
                        <mxPoint x="540" y="185" as="targetPoint"/>
                    </mxGeometry>
                </mxCell>
                <mxCell id="Pofh2OFVeD7XOm_jeUnO-5" value="" style="endArrow=none;html=1;rounded=0;exitX=1;exitY=0.5;exitDx=0;exitDy=0;entryX=0;entryY=0.5;entryDx=0;entryDy=0;" parent="1" source="fS6la11TyCVBO8gZRqQS-1" target="gH9XeUkgVS_6qsFWSwpR-1" edge="1">
                    <mxGeometry width="50" height="50" relative="1" as="geometry">
                        <mxPoint x="630" y="185" as="sourcePoint"/>
                        <mxPoint x="670" y="185" as="targetPoint"/>
                    </mxGeometry>
                </mxCell>
                <mxCell id="Pofh2OFVeD7XOm_jeUnO-6" value="" style="endArrow=none;html=1;rounded=0;exitX=1;exitY=0.5;exitDx=0;exitDy=0;entryX=0.5;entryY=0;entryDx=0;entryDy=0;" parent="1" source="gH9XeUkgVS_6qsFWSwpR-1" target="xyA-tiP0No1S2VFNsUAR-1" edge="1">
                    <mxGeometry width="50" height="50" relative="1" as="geometry">
                        <mxPoint x="887" y="185" as="sourcePoint"/>
                        <mxPoint x="927" y="185" as="targetPoint"/>
                        <Array as="points">
                            <mxPoint x="950" y="175"/>
                        </Array>
                    </mxGeometry>
                </mxCell>
                <mxCell id="Pofh2OFVeD7XOm_jeUnO-7" value="" style="endArrow=none;html=1;rounded=0;exitX=0.5;exitY=0;exitDx=0;exitDy=0;entryX=0.5;entryY=1;entryDx=0;entryDy=0;" parent="1" source="XhsQYgnv3VugerLCkWvd-11" target="xyA-tiP0No1S2VFNsUAR-1" edge="1">
                    <mxGeometry width="50" height="50" relative="1" as="geometry">
                        <mxPoint x="880" y="185" as="sourcePoint"/>
                        <mxPoint x="960" y="420" as="targetPoint"/>
                        <Array as="points">
                            <mxPoint x="565" y="520"/>
                            <mxPoint x="950" y="520"/>
                        </Array>
                    </mxGeometry>
                </mxCell>
                <mxCell id="Pofh2OFVeD7XOm_jeUnO-8" value="" style="endArrow=none;html=1;rounded=0;entryX=0;entryY=0.5;entryDx=0;entryDy=0;exitX=1;exitY=0.5;exitDx=0;exitDy=0;" parent="1" source="M9Vu9bnS06gmllW8D-EQ-1" target="E4s4wqeGl11uZwnDE-qk-1" edge="1">
                    <mxGeometry width="50" height="50" relative="1" as="geometry">
                        <mxPoint x="640" y="340" as="sourcePoint"/>
                        <mxPoint x="670" y="185" as="targetPoint"/>
                    </mxGeometry>
                </mxCell>
                <mxCell id="Pofh2OFVeD7XOm_jeUnO-9" value="" style="endArrow=none;html=1;rounded=0;entryX=0;entryY=0.5;entryDx=0;entryDy=0;exitX=1;exitY=0.5;exitDx=0;exitDy=0;" parent="1" source="E4s4wqeGl11uZwnDE-qk-1" target="XhsQYgnv3VugerLCkWvd-11" edge="1">
                    <mxGeometry width="50" height="50" relative="1" as="geometry">
                        <mxPoint x="350" y="595" as="sourcePoint"/>
                        <mxPoint x="400" y="595" as="targetPoint"/>
                    </mxGeometry>
                </mxCell>
                <mxCell id="Pofh2OFVeD7XOm_jeUnO-10" value="" style="endArrow=none;html=1;rounded=0;entryX=0;entryY=0.5;entryDx=0;entryDy=0;exitX=1;exitY=0.5;exitDx=0;exitDy=0;" parent="1" source="XhsQYgnv3VugerLCkWvd-11" target="Pofh2OFVeD7XOm_jeUnO-1" edge="1">
                    <mxGeometry width="50" height="50" relative="1" as="geometry">
                        <mxPoint x="480" y="595" as="sourcePoint"/>
                        <mxPoint x="530" y="595" as="targetPoint"/>
                    </mxGeometry>
                </mxCell>
                <mxCell id="Pofh2OFVeD7XOm_jeUnO-11" value="" style="endArrow=none;html=1;rounded=0;entryX=0;entryY=0.5;entryDx=0;entryDy=0;exitX=1;exitY=0.5;exitDx=0;exitDy=0;" parent="1" source="Pofh2OFVeD7XOm_jeUnO-1" target="43Qi_iZO2jsJakE7LHLj-1" edge="1">
                    <mxGeometry width="50" height="50" relative="1" as="geometry">
                        <mxPoint x="620" y="595" as="sourcePoint"/>
                        <mxPoint x="660" y="595" as="targetPoint"/>
                    </mxGeometry>
                </mxCell>
                <mxCell id="Pofh2OFVeD7XOm_jeUnO-12" value="" style="endArrow=none;html=1;rounded=0;entryX=0.75;entryY=1;entryDx=0;entryDy=0;" parent="1" target="AXvg-c1SaaJu77Ni_j98-1" edge="1">
                    <mxGeometry width="50" height="50" relative="1" as="geometry">
                        <mxPoint x="318" y="390" as="sourcePoint"/>
                        <mxPoint x="317.5" y="190" as="targetPoint"/>
                    </mxGeometry>
                </mxCell>
                <mxCell id="Pofh2OFVeD7XOm_jeUnO-13" value="" style="endArrow=none;html=1;rounded=0;exitX=1;exitY=0.5;exitDx=0;exitDy=0;" parent="1" source="AXvg-c1SaaJu77Ni_j98-2" edge="1">
                    <mxGeometry width="50" height="50" relative="1" as="geometry">
                        <mxPoint x="490" y="360" as="sourcePoint"/>
                        <mxPoint x="320" y="225" as="targetPoint"/>
                    </mxGeometry>
                </mxCell>
                <mxCell id="Pofh2OFVeD7XOm_jeUnO-14" value="" style="endArrow=none;html=1;rounded=0;exitX=1;exitY=0.5;exitDx=0;exitDy=0;" parent="1" edge="1">
                    <mxGeometry width="50" height="50" relative="1" as="geometry">
                        <mxPoint x="310" y="265" as="sourcePoint"/>
                        <mxPoint x="320" y="265" as="targetPoint"/>
                    </mxGeometry>
                </mxCell>
                <mxCell id="Pofh2OFVeD7XOm_jeUnO-15" value="" style="endArrow=none;html=1;rounded=0;exitX=1;exitY=0.5;exitDx=0;exitDy=0;" parent="1" edge="1">
                    <mxGeometry width="50" height="50" relative="1" as="geometry">
                        <mxPoint x="310" y="305" as="sourcePoint"/>
                        <mxPoint x="320" y="305" as="targetPoint"/>
                    </mxGeometry>
                </mxCell>
                <mxCell id="Pofh2OFVeD7XOm_jeUnO-16" value="" style="endArrow=none;html=1;rounded=0;exitX=1;exitY=0.5;exitDx=0;exitDy=0;" parent="1" edge="1">
                    <mxGeometry width="50" height="50" relative="1" as="geometry">
                        <mxPoint x="309" y="345" as="sourcePoint"/>
                        <mxPoint x="319" y="345" as="targetPoint"/>
                    </mxGeometry>
                </mxCell>
                <mxCell id="Pofh2OFVeD7XOm_jeUnO-17" value="" style="endArrow=none;html=1;rounded=0;exitX=1;exitY=0.5;exitDx=0;exitDy=0;" parent="1" edge="1">
                    <mxGeometry width="50" height="50" relative="1" as="geometry">
                        <mxPoint x="310" y="385" as="sourcePoint"/>
                        <mxPoint x="320" y="385" as="targetPoint"/>
                    </mxGeometry>
                </mxCell>
                <mxCell id="Pofh2OFVeD7XOm_jeUnO-18" value="" style="endArrow=none;html=1;rounded=0;entryX=0.75;entryY=1;entryDx=0;entryDy=0;" parent="1" edge="1">
                    <mxGeometry width="50" height="50" relative="1" as="geometry">
                        <mxPoint x="849" y="390" as="sourcePoint"/>
                        <mxPoint x="849" y="190" as="targetPoint"/>
                    </mxGeometry>
                </mxCell>
                <mxCell id="Pofh2OFVeD7XOm_jeUnO-19" value="" style="endArrow=none;html=1;rounded=0;exitX=1;exitY=0.5;exitDx=0;exitDy=0;" parent="1" edge="1">
                    <mxGeometry width="50" height="50" relative="1" as="geometry">
                        <mxPoint x="841" y="225" as="sourcePoint"/>
                        <mxPoint x="851" y="225" as="targetPoint"/>
                    </mxGeometry>
                </mxCell>
                <mxCell id="Pofh2OFVeD7XOm_jeUnO-20" value="" style="endArrow=none;html=1;rounded=0;exitX=1;exitY=0.5;exitDx=0;exitDy=0;" parent="1" edge="1">
                    <mxGeometry width="50" height="50" relative="1" as="geometry">
                        <mxPoint x="841" y="265" as="sourcePoint"/>
                        <mxPoint x="851" y="265" as="targetPoint"/>
                    </mxGeometry>
                </mxCell>
                <mxCell id="Pofh2OFVeD7XOm_jeUnO-21" value="" style="endArrow=none;html=1;rounded=0;exitX=1;exitY=0.5;exitDx=0;exitDy=0;" parent="1" edge="1">
                    <mxGeometry width="50" height="50" relative="1" as="geometry">
                        <mxPoint x="841" y="305" as="sourcePoint"/>
                        <mxPoint x="851" y="305" as="targetPoint"/>
                    </mxGeometry>
                </mxCell>
                <mxCell id="Pofh2OFVeD7XOm_jeUnO-22" value="" style="endArrow=none;html=1;rounded=0;exitX=1;exitY=0.5;exitDx=0;exitDy=0;" parent="1" edge="1">
                    <mxGeometry width="50" height="50" relative="1" as="geometry">
                        <mxPoint x="840" y="345" as="sourcePoint"/>
                        <mxPoint x="850" y="345" as="targetPoint"/>
                    </mxGeometry>
                </mxCell>
                <mxCell id="Pofh2OFVeD7XOm_jeUnO-23" value="" style="endArrow=none;html=1;rounded=0;exitX=1;exitY=0.5;exitDx=0;exitDy=0;" parent="1" edge="1">
                    <mxGeometry width="50" height="50" relative="1" as="geometry">
                        <mxPoint x="841" y="385" as="sourcePoint"/>
                        <mxPoint x="851" y="385" as="targetPoint"/>
                    </mxGeometry>
                </mxCell>
                <mxCell id="Pofh2OFVeD7XOm_jeUnO-24" value="" style="endArrow=none;html=1;rounded=0;entryX=0.75;entryY=1;entryDx=0;entryDy=0;" parent="1" edge="1">
                    <mxGeometry width="50" height="50" relative="1" as="geometry">
                        <mxPoint x="589" y="910" as="sourcePoint"/>
                        <mxPoint x="589" y="600" as="targetPoint"/>
                    </mxGeometry>
                </mxCell>
                <mxCell id="Pofh2OFVeD7XOm_jeUnO-25" value="" style="endArrow=none;html=1;rounded=0;exitX=1;exitY=0.5;exitDx=0;exitDy=0;" parent="1" edge="1">
                    <mxGeometry width="50" height="50" relative="1" as="geometry">
                        <mxPoint x="581" y="635" as="sourcePoint"/>
                        <mxPoint x="591" y="635" as="targetPoint"/>
                    </mxGeometry>
                </mxCell>
                <mxCell id="Pofh2OFVeD7XOm_jeUnO-26" value="" style="endArrow=none;html=1;rounded=0;exitX=1;exitY=0.5;exitDx=0;exitDy=0;" parent="1" edge="1">
                    <mxGeometry width="50" height="50" relative="1" as="geometry">
                        <mxPoint x="581" y="675" as="sourcePoint"/>
                        <mxPoint x="591" y="675" as="targetPoint"/>
                    </mxGeometry>
                </mxCell>
                <mxCell id="Pofh2OFVeD7XOm_jeUnO-27" value="" style="endArrow=none;html=1;rounded=0;exitX=1;exitY=0.5;exitDx=0;exitDy=0;" parent="1" edge="1">
                    <mxGeometry width="50" height="50" relative="1" as="geometry">
                        <mxPoint x="581" y="715" as="sourcePoint"/>
                        <mxPoint x="591" y="715" as="targetPoint"/>
                    </mxGeometry>
                </mxCell>
                <mxCell id="Pofh2OFVeD7XOm_jeUnO-28" value="" style="endArrow=none;html=1;rounded=0;exitX=1;exitY=0.5;exitDx=0;exitDy=0;" parent="1" edge="1">
                    <mxGeometry width="50" height="50" relative="1" as="geometry">
                        <mxPoint x="580" y="755" as="sourcePoint"/>
                        <mxPoint x="590" y="755" as="targetPoint"/>
                    </mxGeometry>
                </mxCell>
                <mxCell id="Pofh2OFVeD7XOm_jeUnO-29" value="" style="endArrow=none;html=1;rounded=0;exitX=1;exitY=0.5;exitDx=0;exitDy=0;" parent="1" edge="1">
                    <mxGeometry width="50" height="50" relative="1" as="geometry">
                        <mxPoint x="581" y="795" as="sourcePoint"/>
                        <mxPoint x="591" y="795" as="targetPoint"/>
                    </mxGeometry>
                </mxCell>
                <mxCell id="Pofh2OFVeD7XOm_jeUnO-43" value="" style="endArrow=none;html=1;rounded=0;entryX=0.75;entryY=1;entryDx=0;entryDy=0;" parent="1" edge="1">
                    <mxGeometry width="50" height="50" relative="1" as="geometry">
                        <mxPoint x="319" y="800" as="sourcePoint"/>
                        <mxPoint x="319" y="600" as="targetPoint"/>
                    </mxGeometry>
                </mxCell>
                <mxCell id="Pofh2OFVeD7XOm_jeUnO-44" value="" style="endArrow=none;html=1;rounded=0;exitX=1;exitY=0.5;exitDx=0;exitDy=0;" parent="1" edge="1">
                    <mxGeometry width="50" height="50" relative="1" as="geometry">
                        <mxPoint x="311" y="635" as="sourcePoint"/>
                        <mxPoint x="321" y="635" as="targetPoint"/>
                    </mxGeometry>
                </mxCell>
                <mxCell id="Pofh2OFVeD7XOm_jeUnO-45" value="" style="endArrow=none;html=1;rounded=0;exitX=1;exitY=0.5;exitDx=0;exitDy=0;" parent="1" edge="1">
                    <mxGeometry width="50" height="50" relative="1" as="geometry">
                        <mxPoint x="311" y="675" as="sourcePoint"/>
                        <mxPoint x="321" y="675" as="targetPoint"/>
                    </mxGeometry>
                </mxCell>
                <mxCell id="Pofh2OFVeD7XOm_jeUnO-46" value="" style="endArrow=none;html=1;rounded=0;exitX=1;exitY=0.5;exitDx=0;exitDy=0;" parent="1" edge="1">
                    <mxGeometry width="50" height="50" relative="1" as="geometry">
                        <mxPoint x="311" y="715" as="sourcePoint"/>
                        <mxPoint x="321" y="715" as="targetPoint"/>
                    </mxGeometry>
                </mxCell>
                <mxCell id="Pofh2OFVeD7XOm_jeUnO-47" value="" style="endArrow=none;html=1;rounded=0;exitX=1;exitY=0.5;exitDx=0;exitDy=0;" parent="1" edge="1">
                    <mxGeometry width="50" height="50" relative="1" as="geometry">
                        <mxPoint x="310" y="755" as="sourcePoint"/>
                        <mxPoint x="320" y="755" as="targetPoint"/>
                    </mxGeometry>
                </mxCell>
                <mxCell id="Pofh2OFVeD7XOm_jeUnO-48" value="" style="endArrow=none;html=1;rounded=0;exitX=1;exitY=0.5;exitDx=0;exitDy=0;" parent="1" edge="1">
                    <mxGeometry width="50" height="50" relative="1" as="geometry">
                        <mxPoint x="311" y="795" as="sourcePoint"/>
                        <mxPoint x="321" y="795" as="targetPoint"/>
                    </mxGeometry>
                </mxCell>
                <mxCell id="Pofh2OFVeD7XOm_jeUnO-49" value="" style="endArrow=none;html=1;rounded=0;entryX=0.75;entryY=1;entryDx=0;entryDy=0;" parent="1" edge="1">
                    <mxGeometry width="50" height="50" relative="1" as="geometry">
                        <mxPoint x="839" y="800" as="sourcePoint"/>
                        <mxPoint x="839" y="600" as="targetPoint"/>
                    </mxGeometry>
                </mxCell>
                <mxCell id="Pofh2OFVeD7XOm_jeUnO-50" value="" style="endArrow=none;html=1;rounded=0;exitX=1;exitY=0.5;exitDx=0;exitDy=0;" parent="1" edge="1">
                    <mxGeometry width="50" height="50" relative="1" as="geometry">
                        <mxPoint x="831" y="635" as="sourcePoint"/>
                        <mxPoint x="841" y="635" as="targetPoint"/>
                    </mxGeometry>
                </mxCell>
                <mxCell id="Pofh2OFVeD7XOm_jeUnO-51" value="" style="endArrow=none;html=1;rounded=0;exitX=1;exitY=0.5;exitDx=0;exitDy=0;" parent="1" edge="1">
                    <mxGeometry width="50" height="50" relative="1" as="geometry">
                        <mxPoint x="831" y="675" as="sourcePoint"/>
                        <mxPoint x="841" y="675" as="targetPoint"/>
                    </mxGeometry>
                </mxCell>
                <mxCell id="Pofh2OFVeD7XOm_jeUnO-52" value="" style="endArrow=none;html=1;rounded=0;exitX=1;exitY=0.5;exitDx=0;exitDy=0;" parent="1" edge="1">
                    <mxGeometry width="50" height="50" relative="1" as="geometry">
                        <mxPoint x="831" y="715" as="sourcePoint"/>
                        <mxPoint x="841" y="715" as="targetPoint"/>
                    </mxGeometry>
                </mxCell>
                <mxCell id="Pofh2OFVeD7XOm_jeUnO-53" value="" style="endArrow=none;html=1;rounded=0;exitX=1;exitY=0.5;exitDx=0;exitDy=0;" parent="1" edge="1">
                    <mxGeometry width="50" height="50" relative="1" as="geometry">
                        <mxPoint x="830" y="755" as="sourcePoint"/>
                        <mxPoint x="840" y="755" as="targetPoint"/>
                    </mxGeometry>
                </mxCell>
                <mxCell id="Pofh2OFVeD7XOm_jeUnO-54" value="" style="endArrow=none;html=1;rounded=0;exitX=1;exitY=0.5;exitDx=0;exitDy=0;" parent="1" edge="1">
                    <mxGeometry width="50" height="50" relative="1" as="geometry">
                        <mxPoint x="831" y="795" as="sourcePoint"/>
                        <mxPoint x="841" y="795" as="targetPoint"/>
                    </mxGeometry>
                </mxCell>
                <mxCell id="Pofh2OFVeD7XOm_jeUnO-55" value="" style="endArrow=none;html=1;rounded=0;exitX=1;exitY=0.5;exitDx=0;exitDy=0;" parent="1" edge="1">
                    <mxGeometry width="50" height="50" relative="1" as="geometry">
                        <mxPoint x="579" y="837" as="sourcePoint"/>
                        <mxPoint x="589" y="837" as="targetPoint"/>
                    </mxGeometry>
                </mxCell>
                <mxCell id="Pofh2OFVeD7XOm_jeUnO-56" value="" style="endArrow=none;html=1;rounded=0;entryX=0.75;entryY=1;entryDx=0;entryDy=0;" parent="1" edge="1">
                    <mxGeometry width="50" height="50" relative="1" as="geometry">
                        <mxPoint x="600" y="420" as="sourcePoint"/>
                        <mxPoint x="600" y="190" as="targetPoint"/>
                    </mxGeometry>
                </mxCell>
                <mxCell id="Pofh2OFVeD7XOm_jeUnO-57" value="" style="endArrow=none;html=1;rounded=0;" parent="1" edge="1">
                    <mxGeometry width="50" height="50" relative="1" as="geometry">
                        <mxPoint x="600" y="364" as="sourcePoint"/>
                        <mxPoint x="590" y="364" as="targetPoint"/>
                    </mxGeometry>
                </mxCell>
                <mxCell id="Pofh2OFVeD7XOm_jeUnO-58" value="" style="endArrow=none;html=1;rounded=0;" parent="1" edge="1">
                    <mxGeometry width="50" height="50" relative="1" as="geometry">
                        <mxPoint x="600" y="415" as="sourcePoint"/>
                        <mxPoint x="590" y="415" as="targetPoint"/>
                    </mxGeometry>
                </mxCell>
                <mxCell id="Pofh2OFVeD7XOm_jeUnO-59" value="" style="endArrow=none;html=1;rounded=0;" parent="1" edge="1">
                    <mxGeometry width="50" height="50" relative="1" as="geometry">
                        <mxPoint x="600" y="313" as="sourcePoint"/>
                        <mxPoint x="590" y="313" as="targetPoint"/>
                    </mxGeometry>
                </mxCell>
                <mxCell id="Pofh2OFVeD7XOm_jeUnO-60" value="" style="endArrow=none;html=1;rounded=0;" parent="1" edge="1">
                    <mxGeometry width="50" height="50" relative="1" as="geometry">
                        <mxPoint x="600" y="265" as="sourcePoint"/>
                        <mxPoint x="590" y="265" as="targetPoint"/>
                    </mxGeometry>
                </mxCell>
                <mxCell id="Pofh2OFVeD7XOm_jeUnO-61" value="" style="endArrow=none;html=1;rounded=0;" parent="1" edge="1">
                    <mxGeometry width="50" height="50" relative="1" as="geometry">
                        <mxPoint x="600" y="226" as="sourcePoint"/>
                        <mxPoint x="590" y="226" as="targetPoint"/>
                    </mxGeometry>
                </mxCell>
                <mxCell id="Pofh2OFVeD7XOm_jeUnO-62" value="N" style="text;html=1;align=center;verticalAlign=middle;whiteSpace=wrap;rounded=0;" parent="1" vertex="1">
                    <mxGeometry x="490" y="150" width="40" height="20" as="geometry"/>
                </mxCell>
                <mxCell id="Pofh2OFVeD7XOm_jeUnO-63" value="1" style="text;html=1;align=center;verticalAlign=middle;whiteSpace=wrap;rounded=0;" parent="1" vertex="1">
                    <mxGeometry x="330" y="150" width="40" height="20" as="geometry"/>
                </mxCell>
                <mxCell id="Pofh2OFVeD7XOm_jeUnO-65" value="1" style="text;html=1;align=center;verticalAlign=middle;whiteSpace=wrap;rounded=0;" parent="1" vertex="1">
                    <mxGeometry x="610" y="150" width="40" height="20" as="geometry"/>
                </mxCell>
                <mxCell id="EQGgAalfHt4F--PcwR5r-1" value="N" style="text;html=1;align=center;verticalAlign=middle;whiteSpace=wrap;rounded=0;" parent="1" vertex="1">
                    <mxGeometry x="750" y="150" width="40" height="20" as="geometry"/>
                </mxCell>
                <mxCell id="EQGgAalfHt4F--PcwR5r-2" value="N" style="text;html=1;align=center;verticalAlign=middle;whiteSpace=wrap;rounded=0;" parent="1" vertex="1">
                    <mxGeometry x="870" y="151" width="40" height="20" as="geometry"/>
                </mxCell>
                <mxCell id="h31blC_HT8io5Wb05na2-1" value="1" style="text;html=1;align=center;verticalAlign=middle;whiteSpace=wrap;rounded=0;" parent="1" vertex="1">
                    <mxGeometry x="560" y="540" width="40" height="20" as="geometry"/>
                </mxCell>
                <mxCell id="S9hpEKx0baYlVrXBmBm1-1" value="1" style="text;html=1;align=center;verticalAlign=middle;whiteSpace=wrap;rounded=0;" parent="1" vertex="1">
                    <mxGeometry x="330" y="560" width="40" height="20" as="geometry"/>
                </mxCell>
                <mxCell id="S9hpEKx0baYlVrXBmBm1-2" value="1" style="text;html=1;align=center;verticalAlign=middle;whiteSpace=wrap;rounded=0;" parent="1" vertex="1">
                    <mxGeometry x="740" y="560" width="40" height="20" as="geometry"/>
                </mxCell>
                <mxCell id="PzQk3Ae-f_azr6yTI--v-1" value="N" style="text;html=1;align=center;verticalAlign=middle;whiteSpace=wrap;rounded=0;" parent="1" vertex="1">
                    <mxGeometry x="600" y="560" width="40" height="20" as="geometry"/>
                </mxCell>
                <mxCell id="PzQk3Ae-f_azr6yTI--v-7" value="N" style="text;html=1;align=center;verticalAlign=middle;whiteSpace=wrap;rounded=0;" parent="1" vertex="1">
                    <mxGeometry x="490" y="560" width="40" height="20" as="geometry"/>
                </mxCell>
                <mxCell id="m_cTQ89neDhRHW_Vx6b--1" value="&lt;div style=&quot;text-align: left;&quot;&gt;&lt;span style=&quot;text-wrap: nowrap;&quot;&gt;Author&lt;/span&gt;&lt;br&gt;&lt;/div&gt;" style="ellipse;whiteSpace=wrap;html=1;" parent="1" vertex="1">
                    <mxGeometry x="490" y="780" width="90" height="30" as="geometry"/>
                </mxCell>
                <mxCell id="m_cTQ89neDhRHW_Vx6b--2" value="&lt;div style=&quot;text-align: left;&quot;&gt;&lt;span style=&quot;text-wrap: nowrap;&quot;&gt;Publisher&lt;/span&gt;&lt;br&gt;&lt;/div&gt;" style="ellipse;whiteSpace=wrap;html=1;" parent="1" vertex="1">
                    <mxGeometry x="491" y="819" width="90" height="30" as="geometry"/>
                </mxCell>
                <mxCell id="m_cTQ89neDhRHW_Vx6b--3" value="" style="endArrow=none;html=1;rounded=0;exitX=1;exitY=0.5;exitDx=0;exitDy=0;" parent="1" edge="1">
                    <mxGeometry width="50" height="50" relative="1" as="geometry">
                        <mxPoint x="580" y="871" as="sourcePoint"/>
                        <mxPoint x="590" y="871" as="targetPoint"/>
                    </mxGeometry>
                </mxCell>
                <mxCell id="m_cTQ89neDhRHW_Vx6b--4" value="" style="endArrow=none;html=1;rounded=0;exitX=1;exitY=0.5;exitDx=0;exitDy=0;" parent="1" edge="1">
                    <mxGeometry width="50" height="50" relative="1" as="geometry">
                        <mxPoint x="580" y="911" as="sourcePoint"/>
                        <mxPoint x="590" y="911" as="targetPoint"/>
                    </mxGeometry>
                </mxCell>
            </root>
        </mxGraphModel>
    </diagram>
    <diagram id="Qkf9fFKWjxZdHUEq4k6L" name="Use case">
        <mxGraphModel dx="1004" dy="338" grid="1" gridSize="10" guides="1" tooltips="1" connect="1" arrows="1" fold="1" page="1" pageScale="1" pageWidth="827" pageHeight="1169" math="0" shadow="0">
            <root>
                <mxCell id="0"/>
                <mxCell id="1" parent="0"/>
                <mxCell id="yl1nCawyRqVFOpSBMcFd-1" value="Actor" style="shape=umlActor;verticalLabelPosition=bottom;verticalAlign=top;html=1;outlineConnect=0;" parent="1" vertex="1">
                    <mxGeometry x="65" y="160" width="30" height="60" as="geometry"/>
                </mxCell>
                <mxCell id="yl1nCawyRqVFOpSBMcFd-4" value="01.010&lt;div&gt;Размещение заказа&lt;/div&gt;" style="ellipse;whiteSpace=wrap;html=1;" parent="1" vertex="1">
                    <mxGeometry x="358" y="70" width="110" height="60" as="geometry"/>
                </mxCell>
                <mxCell id="yl1nCawyRqVFOpSBMcFd-5" value="01.030&lt;div&gt;Обновление информации о себе&lt;/div&gt;" style="ellipse;whiteSpace=wrap;html=1;" parent="1" vertex="1">
                    <mxGeometry x="358" y="260" width="110" height="60" as="geometry"/>
                </mxCell>
                <mxCell id="yl1nCawyRqVFOpSBMcFd-6" value="01.029&lt;div&gt;Просмотр истории заказов&lt;/div&gt;" style="ellipse;whiteSpace=wrap;html=1;" parent="1" vertex="1">
                    <mxGeometry x="358" y="160" width="110" height="60" as="geometry"/>
                </mxCell>
                <mxCell id="yl1nCawyRqVFOpSBMcFd-7" value="Actor" style="shape=umlActor;verticalLabelPosition=bottom;verticalAlign=top;html=1;outlineConnect=0;" parent="1" vertex="1">
                    <mxGeometry x="65" y="510" width="30" height="60" as="geometry"/>
                </mxCell>
                <mxCell id="yl1nCawyRqVFOpSBMcFd-10" value="02.010&lt;div&gt;Управление продуктами&lt;/div&gt;" style="ellipse;whiteSpace=wrap;html=1;" parent="1" vertex="1">
                    <mxGeometry x="358" y="420" width="110" height="60" as="geometry"/>
                </mxCell>
                <mxCell id="yl1nCawyRqVFOpSBMcFd-11" value="02.020&lt;div&gt;Управление заказами&lt;/div&gt;" style="ellipse;whiteSpace=wrap;html=1;" parent="1" vertex="1">
                    <mxGeometry x="358" y="510" width="110" height="60" as="geometry"/>
                </mxCell>
                <mxCell id="yl1nCawyRqVFOpSBMcFd-12" value="02.030&lt;div&gt;Управление поставщиками&lt;/div&gt;" style="ellipse;whiteSpace=wrap;html=1;" parent="1" vertex="1">
                    <mxGeometry x="358" y="593" width="110" height="60" as="geometry"/>
                </mxCell>
                <mxCell id="yl1nCawyRqVFOpSBMcFd-13" value="02.040&lt;div&gt;Управление складами&lt;/div&gt;" style="ellipse;whiteSpace=wrap;html=1;" parent="1" vertex="1">
                    <mxGeometry x="358" y="680" width="110" height="60" as="geometry"/>
                </mxCell>
                <mxCell id="yl1nCawyRqVFOpSBMcFd-14" value="02.050&lt;div&gt;Управление клиентами&lt;/div&gt;" style="ellipse;whiteSpace=wrap;html=1;" parent="1" vertex="1">
                    <mxGeometry x="358" y="760" width="110" height="60" as="geometry"/>
                </mxCell>
                <mxCell id="yl1nCawyRqVFOpSBMcFd-15" value="Администратор" style="text;html=1;align=center;verticalAlign=middle;whiteSpace=wrap;rounded=0;" parent="1" vertex="1">
                    <mxGeometry x="50" y="610" width="60" height="30" as="geometry"/>
                </mxCell>
                <mxCell id="yl1nCawyRqVFOpSBMcFd-16" value="Клиент" style="text;html=1;align=center;verticalAlign=middle;whiteSpace=wrap;rounded=0;" parent="1" vertex="1">
                    <mxGeometry x="60" y="270" width="60" height="30" as="geometry"/>
                </mxCell>
                <mxCell id="yl1nCawyRqVFOpSBMcFd-19" value="" style="endArrow=none;html=1;rounded=0;entryX=0;entryY=0.5;entryDx=0;entryDy=0;exitX=1;exitY=0.5;exitDx=0;exitDy=0;" parent="1" source="yl1nCawyRqVFOpSBMcFd-63" target="yl1nCawyRqVFOpSBMcFd-10" edge="1">
                    <mxGeometry width="50" height="50" relative="1" as="geometry">
                        <mxPoint x="253" y="540" as="sourcePoint"/>
                        <mxPoint x="833" y="590" as="targetPoint"/>
                    </mxGeometry>
                </mxCell>
                <mxCell id="yl1nCawyRqVFOpSBMcFd-20" value="" style="endArrow=none;html=1;rounded=0;entryX=0;entryY=0.5;entryDx=0;entryDy=0;exitX=1;exitY=0.5;exitDx=0;exitDy=0;" parent="1" source="yl1nCawyRqVFOpSBMcFd-63" target="yl1nCawyRqVFOpSBMcFd-11" edge="1">
                    <mxGeometry width="50" height="50" relative="1" as="geometry">
                        <mxPoint x="263" y="550" as="sourcePoint"/>
                        <mxPoint x="368" y="460" as="targetPoint"/>
                    </mxGeometry>
                </mxCell>
                <mxCell id="yl1nCawyRqVFOpSBMcFd-21" value="" style="endArrow=none;html=1;rounded=0;entryX=0;entryY=0.5;entryDx=0;entryDy=0;exitX=1;exitY=0.5;exitDx=0;exitDy=0;" parent="1" source="yl1nCawyRqVFOpSBMcFd-63" target="yl1nCawyRqVFOpSBMcFd-12" edge="1">
                    <mxGeometry width="50" height="50" relative="1" as="geometry">
                        <mxPoint x="263" y="560" as="sourcePoint"/>
                        <mxPoint x="368" y="550" as="targetPoint"/>
                    </mxGeometry>
                </mxCell>
                <mxCell id="yl1nCawyRqVFOpSBMcFd-22" value="" style="endArrow=none;html=1;rounded=0;entryX=0;entryY=0.5;entryDx=0;entryDy=0;exitX=1;exitY=0.5;exitDx=0;exitDy=0;" parent="1" source="yl1nCawyRqVFOpSBMcFd-63" target="yl1nCawyRqVFOpSBMcFd-13" edge="1">
                    <mxGeometry width="50" height="50" relative="1" as="geometry">
                        <mxPoint x="253" y="570" as="sourcePoint"/>
                        <mxPoint x="368" y="633" as="targetPoint"/>
                    </mxGeometry>
                </mxCell>
                <mxCell id="yl1nCawyRqVFOpSBMcFd-23" value="" style="endArrow=none;html=1;rounded=0;entryX=0;entryY=0.5;entryDx=0;entryDy=0;exitX=1;exitY=0.5;exitDx=0;exitDy=0;" parent="1" source="yl1nCawyRqVFOpSBMcFd-63" target="yl1nCawyRqVFOpSBMcFd-14" edge="1">
                    <mxGeometry width="50" height="50" relative="1" as="geometry">
                        <mxPoint x="253" y="590" as="sourcePoint"/>
                        <mxPoint x="368" y="720" as="targetPoint"/>
                    </mxGeometry>
                </mxCell>
                <mxCell id="yl1nCawyRqVFOpSBMcFd-24" value="" style="endArrow=none;html=1;rounded=0;entryX=0;entryY=0.5;entryDx=0;entryDy=0;exitX=1;exitY=0.5;exitDx=0;exitDy=0;" parent="1" source="yl1nCawyRqVFOpSBMcFd-59" target="yl1nCawyRqVFOpSBMcFd-5" edge="1">
                    <mxGeometry width="50" height="50" relative="1" as="geometry">
                        <mxPoint x="253" y="230" as="sourcePoint"/>
                        <mxPoint x="368" y="460" as="targetPoint"/>
                    </mxGeometry>
                </mxCell>
                <mxCell id="yl1nCawyRqVFOpSBMcFd-25" value="" style="endArrow=none;html=1;rounded=0;entryX=0;entryY=0.5;entryDx=0;entryDy=0;exitX=1;exitY=0.5;exitDx=0;exitDy=0;" parent="1" source="yl1nCawyRqVFOpSBMcFd-59" target="yl1nCawyRqVFOpSBMcFd-6" edge="1">
                    <mxGeometry width="50" height="50" relative="1" as="geometry">
                        <mxPoint x="253" y="200" as="sourcePoint"/>
                        <mxPoint x="368" y="300" as="targetPoint"/>
                    </mxGeometry>
                </mxCell>
                <mxCell id="yl1nCawyRqVFOpSBMcFd-26" value="" style="endArrow=none;html=1;rounded=0;entryX=0;entryY=0.5;entryDx=0;entryDy=0;exitX=1;exitY=0.5;exitDx=0;exitDy=0;" parent="1" source="yl1nCawyRqVFOpSBMcFd-59" target="yl1nCawyRqVFOpSBMcFd-4" edge="1">
                    <mxGeometry width="50" height="50" relative="1" as="geometry">
                        <mxPoint x="253" y="180" as="sourcePoint"/>
                        <mxPoint x="368" y="200" as="targetPoint"/>
                    </mxGeometry>
                </mxCell>
                <mxCell id="yl1nCawyRqVFOpSBMcFd-27" value="&amp;lt;&amp;lt;include&amp;gt;&amp;gt;" style="text;html=1;align=center;verticalAlign=middle;whiteSpace=wrap;rounded=0;" parent="1" vertex="1">
                    <mxGeometry x="533" y="555" width="60" height="30" as="geometry"/>
                </mxCell>
                <mxCell id="yl1nCawyRqVFOpSBMcFd-29" value="Id заказа" style="ellipse;whiteSpace=wrap;html=1;" parent="1" vertex="1">
                    <mxGeometry x="523" y="160" width="110" height="60" as="geometry"/>
                </mxCell>
                <mxCell id="yl1nCawyRqVFOpSBMcFd-31" value="" style="endArrow=none;dashed=1;html=1;rounded=0;exitX=1;exitY=0.5;exitDx=0;exitDy=0;entryX=0;entryY=0.5;entryDx=0;entryDy=0;" parent="1" source="yl1nCawyRqVFOpSBMcFd-6" target="yl1nCawyRqVFOpSBMcFd-29" edge="1">
                    <mxGeometry width="50" height="50" relative="1" as="geometry">
                        <mxPoint x="783" y="280" as="sourcePoint"/>
                        <mxPoint x="833" y="230" as="targetPoint"/>
                    </mxGeometry>
                </mxCell>
                <mxCell id="yl1nCawyRqVFOpSBMcFd-34" value="Добавление&lt;div&gt;данных&lt;/div&gt;" style="ellipse;whiteSpace=wrap;html=1;" parent="1" vertex="1">
                    <mxGeometry x="703" y="516" width="90" height="40" as="geometry"/>
                </mxCell>
                <mxCell id="yl1nCawyRqVFOpSBMcFd-35" value="Удаление данных" style="ellipse;whiteSpace=wrap;html=1;" parent="1" vertex="1">
                    <mxGeometry x="703" y="586" width="90" height="40" as="geometry"/>
                </mxCell>
                <mxCell id="yl1nCawyRqVFOpSBMcFd-36" value="Модификация данных" style="ellipse;whiteSpace=wrap;html=1;" parent="1" vertex="1">
                    <mxGeometry x="703" y="656" width="90" height="40" as="geometry"/>
                </mxCell>
                <mxCell id="yl1nCawyRqVFOpSBMcFd-38" value="Id" style="ellipse;whiteSpace=wrap;html=1;" parent="1" vertex="1">
                    <mxGeometry x="553" y="580" width="110" height="60" as="geometry"/>
                </mxCell>
                <mxCell id="yl1nCawyRqVFOpSBMcFd-39" value="" style="endArrow=classic;html=1;rounded=0;entryX=0;entryY=0.5;entryDx=0;entryDy=0;" parent="1" target="yl1nCawyRqVFOpSBMcFd-38" edge="1">
                    <mxGeometry width="50" height="50" relative="1" as="geometry">
                        <mxPoint x="540" y="610" as="sourcePoint"/>
                        <mxPoint x="730" y="650" as="targetPoint"/>
                    </mxGeometry>
                </mxCell>
                <mxCell id="yl1nCawyRqVFOpSBMcFd-40" value="" style="endArrow=none;dashed=1;html=1;rounded=0;exitX=1;exitY=0.5;exitDx=0;exitDy=0;entryX=0;entryY=0.5;entryDx=0;entryDy=0;" parent="1" source="yl1nCawyRqVFOpSBMcFd-10" target="yl1nCawyRqVFOpSBMcFd-38" edge="1">
                    <mxGeometry width="50" height="50" relative="1" as="geometry">
                        <mxPoint x="398" y="540" as="sourcePoint"/>
                        <mxPoint x="663" y="740" as="targetPoint"/>
                    </mxGeometry>
                </mxCell>
                <mxCell id="yl1nCawyRqVFOpSBMcFd-41" value="" style="endArrow=none;dashed=1;html=1;rounded=0;exitX=1;exitY=0.5;exitDx=0;exitDy=0;" parent="1" source="yl1nCawyRqVFOpSBMcFd-11" edge="1">
                    <mxGeometry width="50" height="50" relative="1" as="geometry">
                        <mxPoint x="478" y="460" as="sourcePoint"/>
                        <mxPoint x="553" y="610" as="targetPoint"/>
                    </mxGeometry>
                </mxCell>
                <mxCell id="yl1nCawyRqVFOpSBMcFd-42" value="" style="endArrow=none;dashed=1;html=1;rounded=0;exitX=1;exitY=0.5;exitDx=0;exitDy=0;" parent="1" source="yl1nCawyRqVFOpSBMcFd-12" edge="1">
                    <mxGeometry width="50" height="50" relative="1" as="geometry">
                        <mxPoint x="478" y="550" as="sourcePoint"/>
                        <mxPoint x="553" y="610" as="targetPoint"/>
                    </mxGeometry>
                </mxCell>
                <mxCell id="yl1nCawyRqVFOpSBMcFd-43" value="" style="endArrow=none;dashed=1;html=1;rounded=0;exitX=1;exitY=0.5;exitDx=0;exitDy=0;" parent="1" source="yl1nCawyRqVFOpSBMcFd-13" edge="1">
                    <mxGeometry width="50" height="50" relative="1" as="geometry">
                        <mxPoint x="478" y="633" as="sourcePoint"/>
                        <mxPoint x="553" y="610" as="targetPoint"/>
                    </mxGeometry>
                </mxCell>
                <mxCell id="yl1nCawyRqVFOpSBMcFd-44" value="" style="endArrow=none;dashed=1;html=1;rounded=0;exitX=1;exitY=0.5;exitDx=0;exitDy=0;" parent="1" source="yl1nCawyRqVFOpSBMcFd-14" edge="1">
                    <mxGeometry width="50" height="50" relative="1" as="geometry">
                        <mxPoint x="458" y="790" as="sourcePoint"/>
                        <mxPoint x="553" y="610" as="targetPoint"/>
                    </mxGeometry>
                </mxCell>
                <mxCell id="yl1nCawyRqVFOpSBMcFd-48" value="" style="endArrow=classic;html=1;rounded=0;entryX=1;entryY=0.5;entryDx=0;entryDy=0;exitX=0;exitY=0.5;exitDx=0;exitDy=0;" parent="1" source="yl1nCawyRqVFOpSBMcFd-36" target="yl1nCawyRqVFOpSBMcFd-38" edge="1">
                    <mxGeometry width="50" height="50" relative="1" as="geometry">
                        <mxPoint x="683" y="700" as="sourcePoint"/>
                        <mxPoint x="733" y="650" as="targetPoint"/>
                    </mxGeometry>
                </mxCell>
                <mxCell id="yl1nCawyRqVFOpSBMcFd-49" value="" style="endArrow=classic;html=1;rounded=0;entryX=1;entryY=0.5;entryDx=0;entryDy=0;exitX=0;exitY=0.5;exitDx=0;exitDy=0;" parent="1" source="yl1nCawyRqVFOpSBMcFd-35" target="yl1nCawyRqVFOpSBMcFd-38" edge="1">
                    <mxGeometry width="50" height="50" relative="1" as="geometry">
                        <mxPoint x="713" y="686" as="sourcePoint"/>
                        <mxPoint x="673" y="620" as="targetPoint"/>
                    </mxGeometry>
                </mxCell>
                <mxCell id="yl1nCawyRqVFOpSBMcFd-50" value="" style="endArrow=classic;html=1;rounded=0;entryX=1;entryY=0.5;entryDx=0;entryDy=0;exitX=0;exitY=0.5;exitDx=0;exitDy=0;" parent="1" source="yl1nCawyRqVFOpSBMcFd-34" target="yl1nCawyRqVFOpSBMcFd-38" edge="1">
                    <mxGeometry width="50" height="50" relative="1" as="geometry">
                        <mxPoint x="713" y="616" as="sourcePoint"/>
                        <mxPoint x="673" y="620" as="targetPoint"/>
                    </mxGeometry>
                </mxCell>
                <mxCell id="yl1nCawyRqVFOpSBMcFd-51" value="&amp;lt;&amp;lt;include&amp;gt;&amp;gt;" style="text;html=1;align=center;verticalAlign=middle;whiteSpace=wrap;rounded=0;" parent="1" vertex="1">
                    <mxGeometry x="533" y="650" width="60" height="30" as="geometry"/>
                </mxCell>
                <mxCell id="yl1nCawyRqVFOpSBMcFd-52" value="&lt;div&gt;Просмотр&lt;/div&gt;&lt;div&gt;данных&lt;/div&gt;" style="ellipse;whiteSpace=wrap;html=1;" parent="1" vertex="1">
                    <mxGeometry x="703" y="460" width="90" height="40" as="geometry"/>
                </mxCell>
                <mxCell id="yl1nCawyRqVFOpSBMcFd-53" value="" style="endArrow=classic;html=1;rounded=0;entryX=1;entryY=0.5;entryDx=0;entryDy=0;exitX=0;exitY=0.5;exitDx=0;exitDy=0;" parent="1" source="yl1nCawyRqVFOpSBMcFd-52" target="yl1nCawyRqVFOpSBMcFd-38" edge="1">
                    <mxGeometry width="50" height="50" relative="1" as="geometry">
                        <mxPoint x="713" y="546" as="sourcePoint"/>
                        <mxPoint x="673" y="620" as="targetPoint"/>
                    </mxGeometry>
                </mxCell>
                <mxCell id="yl1nCawyRqVFOpSBMcFd-59" value="01.005&lt;div&gt;Авторизация&lt;/div&gt;" style="ellipse;whiteSpace=wrap;html=1;" parent="1" vertex="1">
                    <mxGeometry x="150" y="170" width="90" height="60" as="geometry"/>
                </mxCell>
                <mxCell id="yl1nCawyRqVFOpSBMcFd-60" value="" style="endArrow=none;html=1;rounded=0;entryX=0;entryY=0.5;entryDx=0;entryDy=0;" parent="1" target="yl1nCawyRqVFOpSBMcFd-59" edge="1">
                    <mxGeometry width="50" height="50" relative="1" as="geometry">
                        <mxPoint x="100" y="200" as="sourcePoint"/>
                        <mxPoint x="150" y="140" as="targetPoint"/>
                    </mxGeometry>
                </mxCell>
                <mxCell id="yl1nCawyRqVFOpSBMcFd-63" value="02.005&lt;div&gt;Авторизация&lt;/div&gt;" style="ellipse;whiteSpace=wrap;html=1;" parent="1" vertex="1">
                    <mxGeometry x="150" y="525" width="90" height="60" as="geometry"/>
                </mxCell>
                <mxCell id="yl1nCawyRqVFOpSBMcFd-64" value="" style="endArrow=none;html=1;rounded=0;entryX=0;entryY=0.5;entryDx=0;entryDy=0;" parent="1" target="yl1nCawyRqVFOpSBMcFd-63" edge="1">
                    <mxGeometry width="50" height="50" relative="1" as="geometry">
                        <mxPoint x="100" y="555" as="sourcePoint"/>
                        <mxPoint x="150" y="495" as="targetPoint"/>
                    </mxGeometry>
                </mxCell>
                <mxCell id="yl1nCawyRqVFOpSBMcFd-65" value="" style="endArrow=classic;html=1;rounded=0;entryX=0;entryY=0.5;entryDx=0;entryDy=0;" parent="1" target="yl1nCawyRqVFOpSBMcFd-29" edge="1">
                    <mxGeometry width="50" height="50" relative="1" as="geometry">
                        <mxPoint x="510" y="190" as="sourcePoint"/>
                        <mxPoint x="600" y="230" as="targetPoint"/>
                    </mxGeometry>
                </mxCell>
                <mxCell id="yl1nCawyRqVFOpSBMcFd-66" value="&amp;lt;&amp;lt;include&amp;gt;&amp;gt;" style="text;html=1;align=center;verticalAlign=middle;whiteSpace=wrap;rounded=0;" parent="1" vertex="1">
                    <mxGeometry x="480" y="200" width="60" height="30" as="geometry"/>
                </mxCell>
                <mxCell id="S64VPG_35WwKiffgYZ_u-1" value="" style="rounded=0;whiteSpace=wrap;html=1;fillColor=none;" parent="1" vertex="1">
                    <mxGeometry x="240" y="65" width="410" height="270" as="geometry"/>
                </mxCell>
                <mxCell id="S64VPG_35WwKiffgYZ_u-2" value="Заказ товара" style="text;html=1;align=center;verticalAlign=middle;whiteSpace=wrap;rounded=0;strokeColor=default;" parent="1" vertex="1">
                    <mxGeometry x="298" y="20" width="60" height="30" as="geometry"/>
                </mxCell>
                <mxCell id="S64VPG_35WwKiffgYZ_u-3" value="" style="endArrow=none;html=1;rounded=0;entryX=0;entryY=0.5;entryDx=0;entryDy=0;exitX=0;exitY=0;exitDx=0;exitDy=0;" parent="1" source="S64VPG_35WwKiffgYZ_u-1" target="S64VPG_35WwKiffgYZ_u-2" edge="1">
                    <mxGeometry width="50" height="50" relative="1" as="geometry">
                        <mxPoint x="550" y="280" as="sourcePoint"/>
                        <mxPoint x="600" y="230" as="targetPoint"/>
                    </mxGeometry>
                </mxCell>
                <mxCell id="S64VPG_35WwKiffgYZ_u-4" value="" style="rounded=0;whiteSpace=wrap;html=1;fillColor=none;" parent="1" vertex="1">
                    <mxGeometry x="240" y="410" width="560" height="430" as="geometry"/>
                </mxCell>
                <mxCell id="S64VPG_35WwKiffgYZ_u-5" value="Редактирование информации в базе" style="text;html=1;align=center;verticalAlign=middle;whiteSpace=wrap;rounded=0;strokeColor=default;" parent="1" vertex="1">
                    <mxGeometry x="298" y="365" width="122" height="35" as="geometry"/>
                </mxCell>
                <mxCell id="S64VPG_35WwKiffgYZ_u-6" value="" style="endArrow=none;html=1;rounded=0;entryX=0;entryY=0.5;entryDx=0;entryDy=0;exitX=0;exitY=0;exitDx=0;exitDy=0;" parent="1" target="S64VPG_35WwKiffgYZ_u-5" edge="1">
                    <mxGeometry width="50" height="50" relative="1" as="geometry">
                        <mxPoint x="240" y="410" as="sourcePoint"/>
                        <mxPoint x="600" y="575" as="targetPoint"/>
                    </mxGeometry>
                </mxCell>
            </root>
        </mxGraphModel>
    </diagram>
</mxfile>